Interstate-Hairline.ufo
<glyph name="exclam" format="1">
  <advance width="218"/>
  <unicode hex="0021"/>
  <outline>
    <contour>
      <point x="111" y="371" type="line"/>
      <point x="111" y="130" type="line"/>
      <point x="107" y="130" type="line"/>
      <point x="107" y="371" type="line"/>
      <point x="107" y="700" type="line"/>
      <point x="111" y="700" type="line"/>
    </contour>
    <contour>
      <point x="111" y="0" type="line"/>
      <point x="107" y="0" type="line"/>
      <point x="107" y="60" type="line"/>
      <point x="111" y="60" type="line"/>
    </contour>
  </outline>
</glyph>
<glyph name="quotedbl" format="1">
  <advance width="415"/>
  <unicode hex="0022"/>
  <outline>
    <contour>
      <point x="307" y="700" type="line"/>
      <point x="307" y="500" type="line"/>
      <point x="303" y="500" type="line"/>
      <point x="303" y="700" type="line"/>
    </contour>
    <contour>
      <point x="112" y="700" type="line"/>
      <point x="112" y="500" type="line"/>
      <point x="108" y="500" type="line"/>
      <point x="108" y="700" type="line"/>
    </contour>
  </outline>
</glyph>
<glyph name="numbersign" format="1">
  <advance width="640"/>
  <unicode hex="0023"/>
  <outline>
    <contour>
      <point x="581" y="218" type="line"/>
      <point x="446" y="218" type="line"/>
      <point x="446" y="0" type="line"/>
      <point x="442" y="0" type="line"/>
      <point x="442" y="218" type="line"/>
      <point x="198" y="218" type="line"/>
      <point x="198" y="0" type="line"/>
      <point x="194" y="0" type="line"/>
      <point x="194" y="218" type="line"/>
      <point x="59" y="218" type="line"/>
      <point x="59" y="222" type="line"/>
      <point x="194" y="222" type="line"/>
      <point x="194" y="477" type="line"/>
      <point x="59" y="477" type="line"/>
      <point x="59" y="481" type="line"/>
      <point x="194" y="481" type="line"/>
      <point x="194" y="700" type="line"/>
      <point x="198" y="700" type="line"/>
      <point x="198" y="481" type="line"/>
      <point x="442" y="481" type="line"/>
      <point x="442" y="700" type="line"/>
      <point x="446" y="700" type="line"/>
      <point x="446" y="481" type="line"/>
      <point x="581" y="481" type="line"/>
      <point x="581" y="477" type="line"/>
      <point x="446" y="477" type="line"/>
      <point x="446" y="222" type="line"/>
      <point x="581" y="222" type="line"/>
    </contour>
    <contour>
      <point x="442" y="222" type="line"/>
      <point x="442" y="477" type="line"/>
      <point x="198" y="477" type="line"/>
      <point x="198" y="222" type="line"/>
    </contour>
  </outline>
</glyph>
<glyph name="percent" format="1">
  <advance width="835"/>
  <unicode hex="0025"/>
  <outline>
    <contour>
      <point x="347" y="513" type="curve" smooth="yes"/>
      <point x="347" y="387"/>
      <point x="294" y="317"/>
      <point x="205" y="317" type="curve" smooth="yes"/>
      <point x="116" y="317"/>
      <point x="63" y="387"/>
      <point x="63" y="513" type="curve" smooth="yes"/>
      <point x="63" y="641"/>
      <point x="116" y="711"/>
      <point x="205" y="711" type="curve" smooth="yes"/>
      <point x="294" y="711"/>
      <point x="347" y="641"/>
    </contour>
    <contour>
      <point x="637" y="700" type="line"/>
      <point x="202" y="0" type="line"/>
      <point x="198" y="0" type="line"/>
      <point x="633" y="700" type="line"/>
    </contour>
    <contour>
      <point x="772" y="186" type="curve" smooth="yes"/>
      <point x="772" y="59"/>
      <point x="719" y="-11"/>
      <point x="630" y="-11" type="curve" smooth="yes"/>
      <point x="541" y="-11"/>
      <point x="488" y="59"/>
      <point x="488" y="186" type="curve" smooth="yes"/>
      <point x="488" y="313"/>
      <point x="541" y="383"/>
      <point x="630" y="383" type="curve" smooth="yes"/>
      <point x="719" y="383"/>
      <point x="772" y="313"/>
    </contour>
    <contour>
      <point x="343" y="513" type="curve" smooth="yes"/>
      <point x="343" y="639"/>
      <point x="292" y="707"/>
      <point x="205" y="707" type="curve" smooth="yes"/>
      <point x="118" y="707"/>
      <point x="67" y="639"/>
      <point x="67" y="513" type="curve" smooth="yes"/>
      <point x="67" y="389"/>
      <point x="118" y="321"/>
      <point x="205" y="321" type="curve" smooth="yes"/>
      <point x="292" y="321"/>
      <point x="343" y="389"/>
    </contour>
    <contour>
      <point x="768" y="186" type="curve" smooth="yes"/>
      <point x="768" y="311"/>
      <point x="717" y="379"/>
      <point x="630" y="379" type="curve" smooth="yes"/>
      <point x="543" y="379"/>
      <point x="492" y="311"/>
      <point x="492" y="186" type="curve" smooth="yes"/>
      <point x="492" y="61"/>
      <point x="543" y="-7"/>
      <point x="630" y="-7" type="curve" smooth="yes"/>
      <point x="717" y="-7"/>
      <point x="768" y="61"/>
    </contour>
  </outline>
</glyph>
<glyph name="ampersand" format="1">
  <advance width="608"/>
  <unicode hex="0026"/>
  <outline>
    <contour>
      <point x="549" y="0" type="line"/>
      <point x="544" y="0" type="line"/>
      <point x="456" y="111" type="line"/>
      <point x="396" y="25"/>
      <point x="316" y="-11"/>
      <point x="238" y="-11" type="curve" smooth="yes"/>
      <point x="129" y="-11"/>
      <point x="56" y="54"/>
      <point x="56" y="167" type="curve" smooth="yes"/>
      <point x="56" y="269"/>
      <point x="123" y="347"/>
      <point x="229" y="400" type="curve"/>
      <point x="207" y="428" type="line" smooth="yes"/>
      <point x="163" y="484"/>
      <point x="133" y="527"/>
      <point x="133" y="587" type="curve" smooth="yes"/>
      <point x="133" y="665"/>
      <point x="199" y="711"/>
      <point x="275" y="711" type="curve" smooth="yes"/>
      <point x="348" y="711"/>
      <point x="400" y="691"/>
      <point x="451" y="653" type="curve"/>
      <point x="448" y="650" type="line"/>
      <point x="397" y="688"/>
      <point x="347" y="707"/>
      <point x="275" y="707" type="curve" smooth="yes"/>
      <point x="201" y="707"/>
      <point x="137" y="663"/>
      <point x="137" y="587" type="curve" smooth="yes"/>
      <point x="137" y="527"/>
      <point x="167" y="486"/>
      <point x="211" y="430" type="curve" smooth="yes"/>
      <point x="456" y="117" type="line"/>
      <point x="487" y="162"/>
      <point x="513" y="221"/>
      <point x="530" y="294" type="curve"/>
      <point x="534" y="294" type="line"/>
      <point x="516" y="219"/>
      <point x="490" y="159"/>
      <point x="459" y="114" type="curve"/>
    </contour>
    <contour>
      <point x="453" y="114" type="curve"/>
      <point x="232" y="397" type="line"/>
      <point x="126" y="345"/>
      <point x="60" y="267"/>
      <point x="60" y="167" type="curve" smooth="yes"/>
      <point x="60" y="56"/>
      <point x="131" y="-7"/>
      <point x="238" y="-7" type="curve" smooth="yes"/>
      <point x="315" y="-7"/>
      <point x="393" y="27"/>
    </contour>
  </outline>
</glyph>
<glyph name="quotesingle" format="1">
  <advance width="220"/>
  <unicode hex="0027"/>
  <outline>
    <contour>
      <point x="112" y="700" type="line"/>
      <point x="112" y="500" type="line"/>
      <point x="108" y="500" type="line"/>
      <point x="108" y="700" type="line"/>
    </contour>
  </outline>
</glyph>
<glyph name="parenleft" format="1">
  <advance width="350"/>
  <unicode hex="0028"/>
  <outline>
    <contour>
      <point x="254" y="-109" type="curve"/>
      <point x="250" y="-111" type="line"/>
      <point x="170" y="-19"/>
      <point x="88" y="118"/>
      <point x="88" y="300" type="curve" smooth="yes"/>
      <point x="88" y="497"/>
      <point x="156" y="620"/>
      <point x="251" y="717" type="curve"/>
      <point x="253" y="715" type="line"/>
      <point x="160" y="618"/>
      <point x="92" y="495"/>
      <point x="92" y="300" type="curve" smooth="yes"/>
      <point x="92" y="120"/>
      <point x="174" y="-17"/>
    </contour>
  </outline>
</glyph>
<glyph name="parenright" format="1">
  <advance width="350"/>
  <unicode hex="0029"/>
  <outline>
    <contour>
      <point x="262" y="306" type="curve" smooth="yes"/>
      <point x="262" y="109"/>
      <point x="194" y="-14"/>
      <point x="99" y="-111" type="curve"/>
      <point x="97" y="-109" type="line"/>
      <point x="190" y="-12"/>
      <point x="258" y="111"/>
      <point x="258" y="306" type="curve" smooth="yes"/>
      <point x="258" y="486"/>
      <point x="176" y="623"/>
      <point x="96" y="715" type="curve"/>
      <point x="100" y="717" type="line"/>
      <point x="180" y="625"/>
      <point x="262" y="488"/>
    </contour>
  </outline>
</glyph>
<glyph name="asterisk" format="1">
  <advance width="470"/>
  <unicode hex="002A"/>
  <outline>
    <contour>
      <point x="398" y="420" type="line"/>
      <point x="396" y="416" type="line"/>
      <point x="237" y="509" type="line"/>
      <point x="237" y="324" type="line"/>
      <point x="233" y="324" type="line"/>
      <point x="233" y="509" type="line"/>
      <point x="74" y="416" type="line"/>
      <point x="72" y="420" type="line"/>
      <point x="231" y="512" type="line"/>
      <point x="72" y="604" type="line"/>
      <point x="74" y="608" type="line"/>
      <point x="233" y="515" type="line"/>
      <point x="233" y="700" type="line"/>
      <point x="237" y="700" type="line"/>
      <point x="237" y="515" type="line"/>
      <point x="396" y="608" type="line"/>
      <point x="398" y="604" type="line"/>
      <point x="239" y="512" type="line"/>
    </contour>
  </outline>
</glyph>
<glyph name="plus" format="1">
  <advance width="567"/>
  <unicode hex="002B"/>
  <outline>
    <contour>
      <point x="513" y="342" type="line"/>
      <point x="286" y="342" type="line"/>
      <point x="286" y="85" type="line"/>
      <point x="282" y="85" type="line"/>
      <point x="282" y="342" type="line"/>
      <point x="54" y="342" type="line"/>
      <point x="54" y="346" type="line"/>
      <point x="282" y="346" type="line"/>
      <point x="282" y="603" type="line"/>
      <point x="286" y="603" type="line"/>
      <point x="286" y="346" type="line"/>
      <point x="513" y="346" type="line"/>
    </contour>
  </outline>
</glyph>
<glyph name="comma" format="1">
  <advance width="174"/>
  <unicode hex="002C"/>
  <outline>
    <contour>
      <point x="92" y="60" type="line"/>
      <point x="74" y="-68" type="line"/>
      <point x="70" y="-68" type="line"/>
      <point x="88" y="60" type="line"/>
    </contour>
  </outline>
</glyph>
<glyph name="hyphen" format="1">
  <advance width="310"/>
  <unicode hex="002D"/>
  <unicode hex="2010"/>
  <unicode hex="2011"/>
  <outline>
    <contour>
      <point x="258" y="361" type="line"/>
      <point x="52" y="361" type="line"/>
      <point x="52" y="365" type="line"/>
      <point x="258" y="365" type="line"/>
    </contour>
  </outline>
</glyph>
<glyph name="zero" format="1">
  <advance width="652"/>
  <unicode hex="0030"/>
  <outline>
    <contour>
      <point x="582" y="350" type="curve" smooth="yes"/>
      <point x="582" y="127"/>
      <point x="481" y="-11"/>
      <point x="326" y="-11" type="curve" smooth="yes"/>
      <point x="171" y="-11"/>
      <point x="70" y="127"/>
      <point x="70" y="350" type="curve" smooth="yes"/>
      <point x="70" y="573"/>
      <point x="171" y="711"/>
      <point x="326" y="711" type="curve" smooth="yes"/>
      <point x="481" y="711"/>
      <point x="582" y="573"/>
    </contour>
    <contour>
      <point x="578" y="350" type="curve" smooth="yes"/>
      <point x="578" y="571"/>
      <point x="479" y="707"/>
      <point x="326" y="707" type="curve" smooth="yes"/>
      <point x="173" y="707"/>
      <point x="74" y="571"/>
      <point x="74" y="350" type="curve" smooth="yes"/>
      <point x="74" y="129"/>
      <point x="173" y="-7"/>
      <point x="326" y="-7" type="curve" smooth="yes"/>
      <point x="479" y="-7"/>
      <point x="578" y="129"/>
    </contour>
  </outline>
</glyph>
<glyph name="one" format="1">
  <advance width="266"/>
  <unicode hex="0031"/>
  <outline>
    <contour>
      <point x="159" y="0" type="line"/>
      <point x="155" y="0" type="line"/>
      <point x="155" y="696" type="line"/>
      <point x="142" y="665"/>
      <point x="80" y="630"/>
      <point x="33" y="630" type="curve"/>
      <point x="33" y="634" type="line"/>
      <point x="79" y="634"/>
      <point x="141" y="668"/>
      <point x="155" y="705" type="curve"/>
      <point x="159" y="705" type="line"/>
    </contour>
  </outline>
</glyph>
<glyph name="two" format="1">
  <advance width="545"/>
  <unicode hex="0032"/>
  <outline>
    <contour>
      <point x="467" y="0" type="line"/>
      <point x="58" y="0" type="line"/>
      <point x="62" y="97"/>
      <point x="110" y="184"/>
      <point x="267" y="299" type="curve" smooth="yes"/>
      <point x="420" y="410"/>
      <point x="455" y="458"/>
      <point x="455" y="548" type="curve" smooth="yes"/>
      <point x="455" y="654"/>
      <point x="381" y="707"/>
      <point x="271" y="707" type="curve" smooth="yes"/>
      <point x="195" y="707"/>
      <point x="135" y="686"/>
      <point x="89" y="656" type="curve"/>
      <point x="87" y="660" type="line"/>
      <point x="133" y="690"/>
      <point x="194" y="711"/>
      <point x="271" y="711" type="curve" smooth="yes"/>
      <point x="382" y="711"/>
      <point x="459" y="656"/>
      <point x="459" y="548" type="curve" smooth="yes"/>
      <point x="459" y="456"/>
      <point x="424" y="408"/>
      <point x="269" y="295" type="curve" smooth="yes"/>
      <point x="115" y="183"/>
      <point x="67" y="98"/>
      <point x="62" y="4" type="curve"/>
      <point x="467" y="4" type="line"/>
    </contour>
  </outline>
</glyph>
<glyph name="three" format="1">
  <advance width="528"/>
  <unicode hex="0033"/>
  <outline>
    <contour>
      <point x="457" y="188" type="curve" smooth="yes"/>
      <point x="457" y="62"/>
      <point x="371" y="-11"/>
      <point x="233" y="-11" type="curve" smooth="yes"/>
      <point x="172" y="-11"/>
      <point x="89" y="10"/>
      <point x="55" y="37" type="curve"/>
      <point x="58" y="40" type="line"/>
      <point x="92" y="13"/>
      <point x="172" y="-7"/>
      <point x="233" y="-7" type="curve" smooth="yes"/>
      <point x="369" y="-7"/>
      <point x="453" y="64"/>
      <point x="453" y="188" type="curve" smooth="yes"/>
      <point x="453" y="324"/>
      <point x="355" y="372"/>
      <point x="235" y="372" type="curve" smooth="yes"/>
      <point x="202" y="372" type="line"/>
      <point x="202" y="376" type="line"/>
      <point x="235" y="376" type="line" smooth="yes"/>
      <point x="363" y="376"/>
      <point x="425" y="449"/>
      <point x="425" y="546" type="curve" smooth="yes"/>
      <point x="425" y="655"/>
      <point x="352" y="707"/>
      <point x="235" y="707" type="curve" smooth="yes"/>
      <point x="163" y="707"/>
      <point x="95" y="677"/>
      <point x="76" y="661" type="curve"/>
      <point x="74" y="664" type="line"/>
      <point x="93" y="680"/>
      <point x="161" y="711"/>
      <point x="235" y="711" type="curve" smooth="yes"/>
      <point x="354" y="711"/>
      <point x="429" y="657"/>
      <point x="429" y="546" type="curve" smooth="yes"/>
      <point x="429" y="445"/>
      <point x="362" y="380"/>
      <point x="262" y="374" type="curve"/>
      <point x="364" y="369"/>
      <point x="457" y="321"/>
    </contour>
  </outline>
</glyph>
<glyph name="four" format="1">
  <advance width="556"/>
  <unicode hex="0034"/>
  <outline>
    <contour>
      <point x="519" y="195" type="line"/>
      <point x="405" y="195" type="line"/>
      <point x="405" y="0" type="line"/>
      <point x="401" y="0" type="line"/>
      <point x="401" y="195" type="line"/>
      <point x="34" y="195" type="line"/>
      <point x="34" y="198" type="line"/>
      <point x="401" y="706" type="line"/>
      <point x="405" y="706" type="line"/>
      <point x="405" y="199" type="line"/>
      <point x="519" y="199" type="line"/>
    </contour>
    <contour>
      <point x="401" y="199" type="line"/>
      <point x="401" y="699" type="line"/>
      <point x="39" y="199" type="line"/>
    </contour>
  </outline>
</glyph>
<glyph name="five" format="1">
  <advance width="569"/>
  <unicode hex="0035"/>
  <outline>
    <contour>
      <point x="511" y="210" type="curve" smooth="yes"/>
      <point x="511" y="75"/>
      <point x="407" y="-11"/>
      <point x="261" y="-11" type="curve" smooth="yes"/>
      <point x="177" y="-11"/>
      <point x="98" y="18"/>
      <point x="74" y="33" type="curve"/>
      <point x="77" y="36" type="line"/>
      <point x="107" y="19"/>
      <point x="179" y="-7"/>
      <point x="261" y="-7" type="curve" smooth="yes"/>
      <point x="405" y="-7"/>
      <point x="507" y="77"/>
      <point x="507" y="210" type="curve" smooth="yes"/>
      <point x="507" y="331"/>
      <point x="446" y="412"/>
      <point x="286" y="412" type="curve" smooth="yes"/>
      <point x="198" y="412"/>
      <point x="132" y="384"/>
      <point x="96" y="344" type="curve"/>
      <point x="92" y="346" type="line"/>
      <point x="119" y="700" type="line"/>
      <point x="483" y="700" type="line"/>
      <point x="483" y="696" type="line"/>
      <point x="123" y="696" type="line"/>
      <point x="97" y="351" type="line"/>
      <point x="132" y="387"/>
      <point x="197" y="416"/>
      <point x="286" y="416" type="curve" smooth="yes"/>
      <point x="448" y="416"/>
      <point x="511" y="333"/>
    </contour>
  </outline>
</glyph>
<glyph name="six" format="1">
  <advance width="605"/>
  <unicode hex="0036"/>
  <outline>
    <contour>
      <point x="549" y="210" type="curve" smooth="yes"/>
      <point x="549" y="87"/>
      <point x="454" y="-11"/>
      <point x="319" y="-11" type="curve" smooth="yes"/>
      <point x="166" y="-11"/>
      <point x="78" y="75"/>
      <point x="78" y="251" type="curve" smooth="yes"/>
      <point x="78" y="448"/>
      <point x="172" y="667"/>
      <point x="432" y="707" type="curve"/>
      <point x="432" y="703" type="line"/>
      <point x="170" y="662"/>
      <point x="77" y="436"/>
      <point x="82" y="235" type="curve"/>
      <point x="93" y="340"/>
      <point x="194" y="421"/>
      <point x="317" y="421" type="curve" smooth="yes"/>
      <point x="450" y="421"/>
      <point x="549" y="352"/>
    </contour>
    <contour>
      <point x="545" y="210" type="curve" smooth="yes"/>
      <point x="545" y="350"/>
      <point x="448" y="417"/>
      <point x="317" y="417" type="curve" smooth="yes"/>
      <point x="184" y="417"/>
      <point x="79" y="325"/>
      <point x="84" y="211" type="curve" smooth="yes"/>
      <point x="91" y="64"/>
      <point x="180" y="-7"/>
      <point x="319" y="-7" type="curve" smooth="yes"/>
      <point x="452" y="-7"/>
      <point x="545" y="89"/>
    </contour>
  </outline>
</glyph>
<glyph name="seven" format="1">
  <advance width="514"/>
  <unicode hex="0037"/>
  <outline>
    <contour>
      <point x="465" y="697" type="line"/>
      <point x="332" y="530"/>
      <point x="204" y="293"/>
      <point x="190" y="0" type="curve"/>
      <point x="186" y="0" type="line"/>
      <point x="200" y="293"/>
      <point x="326" y="529"/>
      <point x="459" y="696" type="curve"/>
      <point x="34" y="696" type="line"/>
      <point x="34" y="700" type="line"/>
      <point x="465" y="700" type="line"/>
    </contour>
  </outline>
</glyph>
<glyph name="eight" format="1">
  <advance width="602"/>
  <unicode hex="0038"/>
  <outline>
    <contour>
      <point x="544" y="183" type="curve" smooth="yes"/>
      <point x="544" y="56"/>
      <point x="442" y="-11"/>
      <point x="301" y="-11" type="curve" smooth="yes"/>
      <point x="160" y="-11"/>
      <point x="58" y="56"/>
      <point x="58" y="183" type="curve" smooth="yes"/>
      <point x="58" y="298"/>
      <point x="145" y="362"/>
      <point x="272" y="369" type="curve"/>
      <point x="175" y="376"/>
      <point x="89" y="429"/>
      <point x="89" y="539" type="curve" smooth="yes"/>
      <point x="89" y="650"/>
      <point x="186" y="711"/>
      <point x="301" y="711" type="curve" smooth="yes"/>
      <point x="416" y="711"/>
      <point x="513" y="650"/>
      <point x="513" y="539" type="curve" smooth="yes"/>
      <point x="513" y="429"/>
      <point x="427" y="376"/>
      <point x="330" y="369" type="curve"/>
      <point x="457" y="362"/>
      <point x="544" y="298"/>
    </contour>
    <contour>
      <point x="509" y="539" type="curve" smooth="yes"/>
      <point x="509" y="648"/>
      <point x="414" y="707"/>
      <point x="301" y="707" type="curve" smooth="yes"/>
      <point x="188" y="707"/>
      <point x="93" y="648"/>
      <point x="93" y="539" type="curve" smooth="yes"/>
      <point x="93" y="430"/>
      <point x="181" y="371"/>
      <point x="301" y="371" type="curve" smooth="yes"/>
      <point x="421" y="371"/>
      <point x="509" y="430"/>
    </contour>
    <contour>
      <point x="540" y="183" type="curve" smooth="yes"/>
      <point x="540" y="304"/>
      <point x="442" y="367"/>
      <point x="301" y="367" type="curve" smooth="yes"/>
      <point x="160" y="367"/>
      <point x="62" y="304"/>
      <point x="62" y="183" type="curve" smooth="yes"/>
      <point x="62" y="58"/>
      <point x="162" y="-7"/>
      <point x="301" y="-7" type="curve" smooth="yes"/>
      <point x="440" y="-7"/>
      <point x="540" y="58"/>
    </contour>
  </outline>
</glyph>
<glyph name="nine" format="1">
  <advance width="605"/>
  <unicode hex="0039"/>
  <outline>
    <contour>
      <point x="527" y="449" type="curve" smooth="yes"/>
      <point x="527" y="252"/>
      <point x="433" y="33"/>
      <point x="173" y="-7" type="curve"/>
      <point x="173" y="-3" type="line"/>
      <point x="435" y="38"/>
      <point x="528" y="264"/>
      <point x="523" y="465" type="curve"/>
      <point x="512" y="360"/>
      <point x="411" y="279"/>
      <point x="288" y="279" type="curve" smooth="yes"/>
      <point x="155" y="279"/>
      <point x="56" y="348"/>
      <point x="56" y="490" type="curve" smooth="yes"/>
      <point x="56" y="613"/>
      <point x="151" y="711"/>
      <point x="286" y="711" type="curve" smooth="yes"/>
      <point x="439" y="711"/>
      <point x="527" y="625"/>
    </contour>
    <contour>
      <point x="521" y="489" type="curve" smooth="yes"/>
      <point x="514" y="636"/>
      <point x="425" y="707"/>
      <point x="286" y="707" type="curve" smooth="yes"/>
      <point x="153" y="707"/>
      <point x="60" y="611"/>
      <point x="60" y="490" type="curve" smooth="yes"/>
      <point x="60" y="350"/>
      <point x="157" y="283"/>
      <point x="288" y="283" type="curve" smooth="yes"/>
      <point x="421" y="283"/>
      <point x="526" y="375"/>
    </contour>
  </outline>
</glyph>
<glyph name="colon" format="1">
  <advance width="174"/>
  <unicode hex="003A"/>
  <outline>
    <contour>
      <point x="89" y="465" type="line"/>
      <point x="85" y="465" type="line"/>
      <point x="85" y="525" type="line"/>
      <point x="89" y="525" type="line"/>
    </contour>
    <contour>
      <point x="89" y="0" type="line"/>
      <point x="85" y="0" type="line"/>
      <point x="85" y="60" type="line"/>
      <point x="89" y="60" type="line"/>
    </contour>
  </outline>
</glyph>
<glyph name="semicolon" format="1">
  <advance width="174"/>
  <unicode hex="003B"/>
  <outline>
    <contour>
      <point x="89" y="465" type="line"/>
      <point x="85" y="465" type="line"/>
      <point x="85" y="525" type="line"/>
      <point x="89" y="525" type="line"/>
    </contour>
    <contour>
      <point x="84" y="60" type="line"/>
      <point x="66" y="-68" type="line"/>
      <point x="62" y="-68" type="line"/>
      <point x="80" y="60" type="line"/>
    </contour>
  </outline>
</glyph>
<glyph name="less" format="1">
  <advance width="385"/>
  <unicode hex="003C"/>
  <outline>
    <contour>
      <point x="310" y="64" type="line"/>
      <point x="52" y="343" type="line"/>
      <point x="52" y="345" type="line"/>
      <point x="310" y="624" type="line"/>
      <point x="313" y="621" type="line"/>
      <point x="57" y="344" type="line"/>
      <point x="313" y="67" type="line"/>
    </contour>
  </outline>
</glyph>
<glyph name="greater" format="1">
  <advance width="385"/>
  <unicode hex="003E"/>
  <outline>
    <contour>
      <point x="333" y="343" type="line"/>
      <point x="75" y="64" type="line"/>
      <point x="72" y="67" type="line"/>
      <point x="328" y="344" type="line"/>
      <point x="72" y="621" type="line"/>
      <point x="75" y="624" type="line"/>
      <point x="333" y="345" type="line"/>
    </contour>
  </outline>
</glyph>
<glyph name="question" format="1">
  <advance width="552"/>
  <unicode hex="003F"/>
  <outline>
    <contour>
      <point x="458" y="555" type="curve" smooth="yes"/>
      <point x="458" y="474"/>
      <point x="426" y="442"/>
      <point x="339" y="364" type="curve" smooth="yes"/>
      <point x="268" y="299"/>
      <point x="249" y="273"/>
      <point x="249" y="130" type="curve"/>
      <point x="245" y="130" type="line"/>
      <point x="245" y="273"/>
      <point x="265" y="302"/>
      <point x="336" y="366" type="curve" smooth="yes"/>
      <point x="423" y="445"/>
      <point x="454" y="475"/>
      <point x="454" y="555" type="curve" smooth="yes"/>
      <point x="454" y="646"/>
      <point x="382" y="707"/>
      <point x="273" y="707" type="curve" smooth="yes"/>
      <point x="182" y="707"/>
      <point x="121" y="677"/>
      <point x="69" y="639" type="curve"/>
      <point x="67" y="642" type="line"/>
      <point x="117" y="679"/>
      <point x="180" y="711"/>
      <point x="273" y="711" type="curve" smooth="yes"/>
      <point x="384" y="711"/>
      <point x="458" y="648"/>
    </contour>
    <contour>
      <point x="249" y="0" type="line"/>
      <point x="245" y="0" type="line"/>
      <point x="245" y="60" type="line"/>
      <point x="249" y="60" type="line"/>
    </contour>
  </outline>
</glyph>
<glyph name="at" format="1">
  <advance width="836"/>
  <unicode hex="0040"/>
  <outline>
    <contour>
      <point x="779" y="360" type="curve" smooth="yes"/>
      <point x="779" y="211"/>
      <point x="714" y="152"/>
      <point x="636" y="152" type="curve" smooth="yes"/>
      <point x="581" y="152"/>
      <point x="547" y="183"/>
      <point x="542" y="242" type="curve"/>
      <point x="507" y="189"/>
      <point x="455" y="153"/>
      <point x="394" y="153" type="curve" smooth="yes"/>
      <point x="327" y="153"/>
      <point x="257" y="183"/>
      <point x="257" y="269" type="curve" smooth="yes"/>
      <point x="257" y="354"/>
      <point x="324" y="399"/>
      <point x="403" y="399" type="curve" smooth="yes"/>
      <point x="458" y="399"/>
      <point x="506" y="382"/>
      <point x="541" y="361" type="curve"/>
      <point x="541" y="434" type="line" smooth="yes"/>
      <point x="541" y="530"/>
      <point x="501" y="561"/>
      <point x="416" y="561" type="curve" smooth="yes"/>
      <point x="366" y="561"/>
      <point x="332" y="546"/>
      <point x="296" y="530" type="curve"/>
      <point x="294" y="534" type="line"/>
      <point x="330" y="550"/>
      <point x="366" y="565"/>
      <point x="416" y="565" type="curve" smooth="yes"/>
      <point x="503" y="565"/>
      <point x="545" y="534"/>
      <point x="545" y="434" type="curve" smooth="yes"/>
      <point x="545" y="259" type="line" smooth="yes"/>
      <point x="545" y="191"/>
      <point x="578" y="156"/>
      <point x="636" y="156" type="curve" smooth="yes"/>
      <point x="712" y="156"/>
      <point x="775" y="215"/>
      <point x="775" y="360" type="curve" smooth="yes"/>
      <point x="775" y="548"/>
      <point x="629" y="707"/>
      <point x="418" y="707" type="curve" smooth="yes"/>
      <point x="211" y="707"/>
      <point x="61" y="557"/>
      <point x="61" y="350" type="curve" smooth="yes"/>
      <point x="61" y="143"/>
      <point x="211" y="-7"/>
      <point x="418" y="-7" type="curve" smooth="yes"/>
      <point x="475" y="-7"/>
      <point x="513" y="1"/>
      <point x="570" y="27" type="curve"/>
      <point x="572" y="23" type="line"/>
      <point x="515" y="-3"/>
      <point x="475" y="-11"/>
      <point x="418" y="-11" type="curve" smooth="yes"/>
      <point x="209" y="-11"/>
      <point x="57" y="141"/>
      <point x="57" y="350" type="curve" smooth="yes"/>
      <point x="57" y="559"/>
      <point x="209" y="711"/>
      <point x="418" y="711" type="curve" smooth="yes"/>
      <point x="631" y="711"/>
      <point x="779" y="550"/>
    </contour>
    <contour>
      <point x="541" y="248" type="curve"/>
      <point x="541" y="356" type="line"/>
      <point x="506" y="377"/>
      <point x="459" y="395"/>
      <point x="403" y="395" type="curve" smooth="yes"/>
      <point x="326" y="395"/>
      <point x="261" y="352"/>
      <point x="261" y="269" type="curve" smooth="yes"/>
      <point x="261" y="185"/>
      <point x="329" y="157"/>
      <point x="394" y="157" type="curve" smooth="yes"/>
      <point x="455" y="157"/>
      <point x="508" y="194"/>
    </contour>
  </outline>
</glyph>
<glyph name="A" format="1">
  <advance width="646"/>
  <unicode hex="0041"/>
  <outline>
    <contour>
      <point x="572" y="0" type="line"/>
      <point x="568" y="0" type="line"/>
      <point x="493" y="212" type="line"/>
      <point x="153" y="212" type="line"/>
      <point x="78" y="0" type="line"/>
      <point x="74" y="0" type="line"/>
      <point x="321" y="705" type="line"/>
      <point x="325" y="705" type="line"/>
    </contour>
    <contour>
      <point x="492" y="216" type="line"/>
      <point x="323" y="698" type="line"/>
      <point x="154" y="216" type="line"/>
    </contour>
  </outline>
</glyph>
<glyph name="B" format="1">
  <advance width="581"/>
  <unicode hex="0042"/>
  <outline>
    <contour>
      <point x="515" y="198" type="curve" smooth="yes"/>
      <point x="515" y="69"/>
      <point x="430" y="0"/>
      <point x="294" y="0" type="curve" smooth="yes"/>
      <point x="102" y="0" type="line"/>
      <point x="102" y="700" type="line"/>
      <point x="286" y="700" type="line" smooth="yes"/>
      <point x="376" y="700"/>
      <point x="469" y="662"/>
      <point x="469" y="545" type="curve" smooth="yes"/>
      <point x="469" y="432"/>
      <point x="390" y="389"/>
      <point x="317" y="382" type="curve"/>
      <point x="418" y="375"/>
      <point x="515" y="317"/>
    </contour>
    <contour>
      <point x="465" y="545" type="curve" smooth="yes"/>
      <point x="465" y="660"/>
      <point x="374" y="696"/>
      <point x="286" y="696" type="curve" smooth="yes"/>
      <point x="106" y="696" type="line"/>
      <point x="106" y="384" type="line"/>
      <point x="288" y="384" type="line" smooth="yes"/>
      <point x="387" y="384"/>
      <point x="465" y="435"/>
    </contour>
    <contour>
      <point x="511" y="198" type="curve" smooth="yes"/>
      <point x="511" y="314"/>
      <point x="414" y="380"/>
      <point x="288" y="380" type="curve" smooth="yes"/>
      <point x="106" y="380" type="line"/>
      <point x="106" y="4" type="line"/>
      <point x="294" y="4" type="line" smooth="yes"/>
      <point x="428" y="4"/>
      <point x="511" y="71"/>
    </contour>
  </outline>
</glyph>
<glyph name="C" format="1">
  <advance width="608"/>
  <unicode hex="0043"/>
  <outline>
    <contour>
      <point x="539" y="58" type="line"/>
      <point x="490" y="12"/>
      <point x="425" y="-11"/>
      <point x="359" y="-11" type="curve" smooth="yes"/>
      <point x="195" y="-11"/>
      <point x="78" y="127"/>
      <point x="78" y="350" type="curve" smooth="yes"/>
      <point x="78" y="573"/>
      <point x="195" y="711"/>
      <point x="359" y="711" type="curve" smooth="yes"/>
      <point x="437" y="711"/>
      <point x="487" y="689"/>
      <point x="527" y="653" type="curve"/>
      <point x="524" y="650" type="line"/>
      <point x="484" y="686"/>
      <point x="436" y="707"/>
      <point x="359" y="707" type="curve" smooth="yes"/>
      <point x="198" y="707"/>
      <point x="82" y="570"/>
      <point x="82" y="350" type="curve" smooth="yes"/>
      <point x="82" y="130"/>
      <point x="198" y="-7"/>
      <point x="359" y="-7" type="curve" smooth="yes"/>
      <point x="424" y="-7"/>
      <point x="489" y="16"/>
      <point x="536" y="61" type="curve"/>
    </contour>
  </outline>
</glyph>
<glyph name="D" format="1">
  <advance width="664"/>
  <unicode hex="0044"/>
  <outline>
    <contour>
      <point x="586" y="350" type="curve" smooth="yes"/>
      <point x="586" y="105"/>
      <point x="476" y="0"/>
      <point x="279" y="0" type="curve" smooth="yes"/>
      <point x="102" y="0" type="line"/>
      <point x="102" y="700" type="line"/>
      <point x="279" y="700" type="line" smooth="yes"/>
      <point x="477" y="700"/>
      <point x="586" y="592"/>
    </contour>
    <contour>
      <point x="582" y="350" type="curve" smooth="yes"/>
      <point x="582" y="589"/>
      <point x="475" y="696"/>
      <point x="279" y="696" type="curve" smooth="yes"/>
      <point x="106" y="696" type="line"/>
      <point x="106" y="4" type="line"/>
      <point x="279" y="4" type="line" smooth="yes"/>
      <point x="474" y="4"/>
      <point x="582" y="108"/>
    </contour>
  </outline>
</glyph>
<glyph name="E" format="1">
  <advance width="514"/>
  <unicode hex="0045"/>
  <outline>
    <contour>
      <point x="477" y="0" type="line"/>
      <point x="102" y="0" type="line"/>
      <point x="102" y="700" type="line"/>
      <point x="462" y="700" type="line"/>
      <point x="462" y="696" type="line"/>
      <point x="106" y="696" type="line"/>
      <point x="106" y="375" type="line"/>
      <point x="332" y="375" type="line"/>
      <point x="332" y="371" type="line"/>
      <point x="106" y="371" type="line"/>
      <point x="106" y="4" type="line"/>
      <point x="477" y="4" type="line"/>
    </contour>
  </outline>
</glyph>
<glyph name="F" format="1">
  <advance width="491"/>
  <unicode hex="0046"/>
  <outline>
    <contour>
      <point x="451" y="696" type="line"/>
      <point x="106" y="696" type="line"/>
      <point x="106" y="362" type="line"/>
      <point x="326" y="362" type="line"/>
      <point x="326" y="358" type="line"/>
      <point x="106" y="358" type="line"/>
      <point x="106" y="0" type="line"/>
      <point x="102" y="0" type="line"/>
      <point x="102" y="700" type="line"/>
      <point x="451" y="700" type="line"/>
    </contour>
  </outline>
</glyph>
<glyph name="G" format="1">
  <advance width="665"/>
  <unicode hex="0047"/>
  <outline>
    <contour>
      <point x="593" y="277" type="line" smooth="yes"/>
      <point x="593" y="91"/>
      <point x="506" y="-11"/>
      <point x="359" y="-11" type="curve" smooth="yes"/>
      <point x="195" y="-11"/>
      <point x="78" y="128"/>
      <point x="78" y="350" type="curve" smooth="yes"/>
      <point x="78" y="571"/>
      <point x="195" y="711"/>
      <point x="359" y="711" type="curve" smooth="yes"/>
      <point x="450" y="711"/>
      <point x="507" y="678"/>
      <point x="552" y="634" type="curve"/>
      <point x="549" y="631" type="line"/>
      <point x="503" y="675"/>
      <point x="448" y="707"/>
      <point x="359" y="707" type="curve" smooth="yes"/>
      <point x="197" y="707"/>
      <point x="82" y="568"/>
      <point x="82" y="350" type="curve" smooth="yes"/>
      <point x="82" y="130"/>
      <point x="197" y="-7"/>
      <point x="359" y="-7" type="curve" smooth="yes"/>
      <point x="504" y="-7"/>
      <point x="589" y="93"/>
      <point x="589" y="277" type="curve" smooth="yes"/>
      <point x="589" y="297" type="line"/>
      <point x="401" y="297" type="line"/>
      <point x="401" y="301" type="line"/>
      <point x="593" y="301" type="line"/>
    </contour>
  </outline>
</glyph>
<glyph name="H" format="1">
  <advance width="656"/>
  <unicode hex="0048"/>
  <outline>
    <contour>
      <point x="554" y="0" type="line"/>
      <point x="550" y="0" type="line"/>
      <point x="550" y="363" type="line"/>
      <point x="106" y="363" type="line"/>
      <point x="106" y="0" type="line"/>
      <point x="102" y="0" type="line"/>
      <point x="102" y="700" type="line"/>
      <point x="106" y="700" type="line"/>
      <point x="106" y="367" type="line"/>
      <point x="550" y="367" type="line"/>
      <point x="550" y="700" type="line"/>
      <point x="554" y="700" type="line"/>
    </contour>
  </outline>
</glyph>
<glyph name="J" format="1">
  <advance width="537"/>
  <unicode hex="004A"/>
  <outline>
    <contour>
      <point x="440" y="221" type="line" smooth="yes"/>
      <point x="440" y="66"/>
      <point x="366" y="-11"/>
      <point x="245" y="-11" type="curve" smooth="yes"/>
      <point x="147" y="-11"/>
      <point x="84" y="31"/>
      <point x="49" y="112" type="curve"/>
      <point x="53" y="114" type="line"/>
      <point x="88" y="34"/>
      <point x="148" y="-7"/>
      <point x="245" y="-7" type="curve" smooth="yes"/>
      <point x="362" y="-7"/>
      <point x="436" y="68"/>
      <point x="436" y="221" type="curve" smooth="yes"/>
      <point x="436" y="700" type="line"/>
      <point x="440" y="700" type="line"/>
    </contour>
  </outline>
</glyph>
<glyph name="K" format="1">
  <advance width="583"/>
  <unicode hex="004B"/>
  <outline>
    <contour>
      <point x="534" y="0" type="line"/>
      <point x="530" y="0" type="line"/>
      <point x="274" y="399" type="line"/>
      <point x="106" y="185" type="line"/>
      <point x="106" y="0" type="line"/>
      <point x="102" y="0" type="line"/>
      <point x="102" y="700" type="line"/>
      <point x="106" y="700" type="line"/>
      <point x="106" y="190" type="line"/>
      <point x="506" y="700" type="line"/>
      <point x="510" y="700" type="line"/>
      <point x="277" y="402" type="line"/>
    </contour>
  </outline>
</glyph>
<glyph name="L" format="1">
  <advance width="491"/>
  <unicode hex="004C"/>
  <outline>
    <contour>
      <point x="451" y="0" type="line"/>
      <point x="102" y="0" type="line"/>
      <point x="102" y="700" type="line"/>
      <point x="106" y="700" type="line"/>
      <point x="106" y="4" type="line"/>
      <point x="451" y="4" type="line"/>
    </contour>
  </outline>
</glyph>
<glyph name="M" format="1">
  <advance width="792"/>
  <unicode hex="004D"/>
  <outline>
    <contour>
      <point x="690" y="0" type="line"/>
      <point x="686" y="0" type="line"/>
      <point x="686" y="689" type="line"/>
      <point x="397" y="-5" type="line"/>
      <point x="395" y="-5" type="line"/>
      <point x="106" y="689" type="line"/>
      <point x="106" y="0" type="line"/>
      <point x="102" y="0" type="line"/>
      <point x="102" y="700" type="line"/>
      <point x="106" y="700" type="line"/>
      <point x="396" y="2" type="line"/>
      <point x="686" y="700" type="line"/>
      <point x="690" y="700" type="line"/>
    </contour>
  </outline>
</glyph>
<glyph name="N" format="1">
  <advance width="648"/>
  <unicode hex="004E"/>
  <outline>
    <contour>
      <point x="546" y="0" type="line"/>
      <point x="542" y="0" type="line"/>
      <point x="106" y="693" type="line"/>
      <point x="106" y="0" type="line"/>
      <point x="102" y="0" type="line"/>
      <point x="102" y="700" type="line"/>
      <point x="106" y="700" type="line"/>
      <point x="542" y="7" type="line"/>
      <point x="542" y="700" type="line"/>
      <point x="546" y="700" type="line"/>
    </contour>
  </outline>
</glyph>
<glyph name="O" format="1">
  <advance width="728"/>
  <unicode hex="004F"/>
  <outline>
    <contour>
      <point x="650" y="350" type="curve" smooth="yes"/>
      <point x="650" y="120"/>
      <point x="527" y="-11"/>
      <point x="364" y="-11" type="curve" smooth="yes"/>
      <point x="201" y="-11"/>
      <point x="78" y="120"/>
      <point x="78" y="350" type="curve" smooth="yes"/>
      <point x="78" y="580"/>
      <point x="201" y="711"/>
      <point x="364" y="711" type="curve" smooth="yes"/>
      <point x="527" y="711"/>
      <point x="650" y="580"/>
    </contour>
    <contour>
      <point x="646" y="350" type="curve" smooth="yes"/>
      <point x="646" y="577"/>
      <point x="525" y="707"/>
      <point x="364" y="707" type="curve" smooth="yes"/>
      <point x="203" y="707"/>
      <point x="82" y="577"/>
      <point x="82" y="350" type="curve" smooth="yes"/>
      <point x="82" y="123"/>
      <point x="203" y="-7"/>
      <point x="364" y="-7" type="curve" smooth="yes"/>
      <point x="525" y="-7"/>
      <point x="646" y="123"/>
    </contour>
  </outline>
</glyph>
<glyph name="P" format="1">
  <advance width="562"/>
  <unicode hex="0050"/>
  <outline>
    <contour>
      <point x="512" y="511" type="curve" smooth="yes"/>
      <point x="512" y="377"/>
      <point x="429" y="313"/>
      <point x="272" y="313" type="curve" smooth="yes"/>
      <point x="106" y="313" type="line"/>
      <point x="106" y="0" type="line"/>
      <point x="102" y="0" type="line"/>
      <point x="102" y="700" type="line"/>
      <point x="286" y="700" type="line" smooth="yes"/>
      <point x="426" y="700"/>
      <point x="512" y="652"/>
    </contour>
    <contour>
      <point x="507" y="511" type="curve" smooth="yes"/>
      <point x="507" y="649"/>
      <point x="423" y="696"/>
      <point x="286" y="696" type="curve" smooth="yes"/>
      <point x="106" y="696" type="line"/>
      <point x="106" y="317" type="line"/>
      <point x="272" y="317" type="line" smooth="yes"/>
      <point x="426" y="317"/>
      <point x="507" y="379"/>
    </contour>
  </outline>
</glyph>
<glyph name="Q" format="1">
  <advance width="728"/>
  <unicode hex="0051"/>
  <outline>
    <contour>
      <point x="650" y="350" type="curve" smooth="yes"/>
      <point x="650" y="197"/>
      <point x="596" y="88"/>
      <point x="511" y="32" type="curve"/>
      <point x="547" y="-23" type="line"/>
      <point x="544" y="-25" type="line"/>
      <point x="508" y="30" type="line"/>
      <point x="467" y="3"/>
      <point x="418" y="-11"/>
      <point x="364" y="-11" type="curve" smooth="yes"/>
      <point x="201" y="-11"/>
      <point x="78" y="120"/>
      <point x="78" y="350" type="curve" smooth="yes"/>
      <point x="78" y="580"/>
      <point x="201" y="711"/>
      <point x="364" y="711" type="curve" smooth="yes"/>
      <point x="527" y="711"/>
      <point x="650" y="580"/>
    </contour>
    <contour>
      <point x="646" y="350" type="curve" smooth="yes"/>
      <point x="646" y="577"/>
      <point x="525" y="707"/>
      <point x="364" y="707" type="curve" smooth="yes"/>
      <point x="203" y="707"/>
      <point x="82" y="577"/>
      <point x="82" y="350" type="curve" smooth="yes"/>
      <point x="82" y="123"/>
      <point x="203" y="-7"/>
      <point x="364" y="-7" type="curve" smooth="yes"/>
      <point x="417" y="-7"/>
      <point x="465" y="7"/>
      <point x="506" y="33" type="curve"/>
      <point x="432" y="149" type="line"/>
      <point x="435" y="151" type="line"/>
      <point x="509" y="35" type="line"/>
      <point x="592" y="91"/>
      <point x="646" y="199"/>
    </contour>
  </outline>
</glyph>
<glyph name="R" format="1">
  <advance width="588"/>
  <unicode hex="0052"/>
  <outline>
    <contour>
      <point x="512" y="519" type="curve" smooth="yes"/>
      <point x="512" y="405"/>
      <point x="445" y="347"/>
      <point x="329" y="333" type="curve"/>
      <point x="499" y="0" type="line"/>
      <point x="494" y="0" type="line"/>
      <point x="325" y="332" type="line"/>
      <point x="307" y="330"/>
      <point x="285" y="329"/>
      <point x="264" y="329" type="curve" smooth="yes"/>
      <point x="106" y="329" type="line"/>
      <point x="106" y="0" type="line"/>
      <point x="102" y="0" type="line"/>
      <point x="102" y="700" type="line"/>
      <point x="278" y="700" type="line" smooth="yes"/>
      <point x="418" y="700"/>
      <point x="512" y="660"/>
    </contour>
    <contour>
      <point x="508" y="519" type="curve" smooth="yes"/>
      <point x="508" y="656"/>
      <point x="417" y="696"/>
      <point x="278" y="696" type="curve" smooth="yes"/>
      <point x="106" y="696" type="line"/>
      <point x="106" y="333" type="line"/>
      <point x="264" y="333" type="line" smooth="yes"/>
      <point x="418" y="333"/>
      <point x="508" y="387"/>
    </contour>
  </outline>
</glyph>
<glyph name="S" format="1">
  <advance width="556"/>
  <unicode hex="0053"/>
  <outline>
    <contour>
      <point x="474" y="165" type="curve" smooth="yes"/>
      <point x="474" y="44"/>
      <point x="375" y="-11"/>
      <point x="274" y="-11" type="curve" smooth="yes"/>
      <point x="188" y="-11"/>
      <point x="123" y="12"/>
      <point x="63" y="55" type="curve"/>
      <point x="66" y="58" type="line"/>
      <point x="127" y="15"/>
      <point x="188" y="-7"/>
      <point x="274" y="-7" type="curve" smooth="yes"/>
      <point x="373" y="-7"/>
      <point x="470" y="46"/>
      <point x="470" y="165" type="curve" smooth="yes"/>
      <point x="470" y="260"/>
      <point x="420" y="302"/>
      <point x="265" y="361" type="curve" smooth="yes"/>
      <point x="114" y="418"/>
      <point x="75" y="457"/>
      <point x="75" y="547" type="curve" smooth="yes"/>
      <point x="75" y="631"/>
      <point x="139" y="711"/>
      <point x="270" y="711" type="curve" smooth="yes"/>
      <point x="362" y="711"/>
      <point x="414" y="686"/>
      <point x="463" y="655" type="curve"/>
      <point x="460" y="652" type="line"/>
      <point x="410" y="683"/>
      <point x="360" y="707"/>
      <point x="270" y="707" type="curve" smooth="yes"/>
      <point x="141" y="707"/>
      <point x="79" y="629"/>
      <point x="79" y="547" type="curve" smooth="yes"/>
      <point x="79" y="459"/>
      <point x="118" y="421"/>
      <point x="267" y="365" type="curve" smooth="yes"/>
      <point x="424" y="305"/>
      <point x="474" y="262"/>
    </contour>
  </outline>
</glyph>
<glyph name="T" format="1">
  <advance width="556"/>
  <unicode hex="0054"/>
  <outline>
    <contour>
      <point x="509" y="696" type="line"/>
      <point x="278" y="696" type="line"/>
      <point x="278" y="0" type="line"/>
      <point x="274" y="0" type="line"/>
      <point x="274" y="696" type="line"/>
      <point x="43" y="696" type="line"/>
      <point x="43" y="700" type="line"/>
      <point x="509" y="700" type="line"/>
    </contour>
  </outline>
</glyph>
<glyph name="U" format="1">
  <advance width="653"/>
  <unicode hex="0055"/>
  <outline>
    <contour>
      <point x="556" y="249" type="line" smooth="yes"/>
      <point x="556" y="70"/>
      <point x="475" y="-11"/>
      <point x="326" y="-11" type="curve" smooth="yes"/>
      <point x="178" y="-11"/>
      <point x="97" y="70"/>
      <point x="97" y="249" type="curve" smooth="yes"/>
      <point x="97" y="700" type="line"/>
      <point x="101" y="700" type="line"/>
      <point x="101" y="249" type="line" smooth="yes"/>
      <point x="101" y="73"/>
      <point x="180" y="-7"/>
      <point x="326" y="-7" type="curve" smooth="yes"/>
      <point x="473" y="-7"/>
      <point x="552" y="73"/>
      <point x="552" y="249" type="curve" smooth="yes"/>
      <point x="552" y="700" type="line"/>
      <point x="556" y="700" type="line"/>
    </contour>
  </outline>
</glyph>
<glyph name="V" format="1">
  <advance width="646"/>
  <unicode hex="0056"/>
  <outline>
    <contour>
      <point x="572" y="700" type="line"/>
      <point x="325" y="-5" type="line"/>
      <point x="321" y="-5" type="line"/>
      <point x="74" y="700" type="line"/>
      <point x="78" y="700" type="line"/>
      <point x="323" y="2" type="line"/>
      <point x="568" y="700" type="line"/>
    </contour>
  </outline>
</glyph>
<glyph name="W" format="1">
  <advance width="900"/>
  <unicode hex="0057"/>
  <outline>
    <contour>
      <point x="821" y="700" type="line"/>
      <point x="658" y="-5" type="line"/>
      <point x="654" y="-5" type="line"/>
      <point x="450" y="693" type="line"/>
      <point x="246" y="-5" type="line"/>
      <point x="242" y="-5" type="line"/>
      <point x="79" y="700" type="line"/>
      <point x="83" y="700" type="line"/>
      <point x="244" y="3" type="line"/>
      <point x="448" y="701" type="line"/>
      <point x="452" y="701" type="line"/>
      <point x="656" y="3" type="line"/>
      <point x="817" y="700" type="line"/>
    </contour>
  </outline>
</glyph>
<glyph name="X" format="1">
  <advance width="588"/>
  <unicode hex="0058"/>
  <outline>
    <contour>
      <point x="525" y="0" type="line"/>
      <point x="520" y="0" type="line"/>
      <point x="294" y="364" type="line"/>
      <point x="67" y="0" type="line"/>
      <point x="63" y="0" type="line"/>
      <point x="291" y="367" type="line"/>
      <point x="84" y="700" type="line"/>
      <point x="88" y="700" type="line"/>
      <point x="294" y="370" type="line"/>
      <point x="500" y="700" type="line"/>
      <point x="504" y="700" type="line"/>
      <point x="297" y="367" type="line"/>
    </contour>
  </outline>
</glyph>
<glyph name="Y" format="1">
  <advance width="608"/>
  <unicode hex="0059"/>
  <outline>
    <contour>
      <point x="543" y="700" type="line"/>
      <point x="306" y="301" type="line"/>
      <point x="306" y="0" type="line"/>
      <point x="302" y="0" type="line"/>
      <point x="302" y="301" type="line"/>
      <point x="65" y="700" type="line"/>
      <point x="70" y="700" type="line"/>
      <point x="304" y="305" type="line"/>
      <point x="538" y="700" type="line"/>
    </contour>
  </outline>
</glyph>
<glyph name="Z" format="1">
  <advance width="577"/>
  <unicode hex="005A"/>
  <outline>
    <contour>
      <point x="500" y="0" type="line"/>
      <point x="61" y="0" type="line"/>
      <point x="61" y="4" type="line"/>
      <point x="495" y="696" type="line"/>
      <point x="82" y="696" type="line"/>
      <point x="82" y="700" type="line"/>
      <point x="500" y="700" type="line"/>
      <point x="500" y="696" type="line"/>
      <point x="66" y="4" type="line"/>
      <point x="500" y="4" type="line"/>
    </contour>
  </outline>
</glyph>
<glyph name="bracketleft" format="1">
  <advance width="310"/>
  <unicode hex="005B"/>
  <outline>
    <contour>
      <point x="242" y="-110" type="line"/>
      <point x="106" y="-110" type="line"/>
      <point x="106" y="700" type="line"/>
      <point x="242" y="700" type="line"/>
      <point x="242" y="696" type="line"/>
      <point x="110" y="696" type="line"/>
      <point x="110" y="-106" type="line"/>
      <point x="242" y="-106" type="line"/>
    </contour>
  </outline>
</glyph>
<glyph name="backslash" format="1">
  <advance width="400"/>
  <unicode hex="005C"/>
  <outline>
    <contour>
      <point x="345" y="-90" type="line"/>
      <point x="341" y="-90" type="line"/>
      <point x="55" y="790" type="line"/>
      <point x="59" y="790" type="line"/>
    </contour>
  </outline>
</glyph>
<glyph name="bracketright" format="1">
  <advance width="310"/>
  <unicode hex="005D"/>
  <outline>
    <contour>
      <point x="204" y="-110" type="line"/>
      <point x="68" y="-110" type="line"/>
      <point x="68" y="-106" type="line"/>
      <point x="200" y="-106" type="line"/>
      <point x="200" y="696" type="line"/>
      <point x="68" y="696" type="line"/>
      <point x="68" y="700" type="line"/>
      <point x="204" y="700" type="line"/>
    </contour>
  </outline>
</glyph>
<glyph name="asciicircum" format="1">
  <advance width="540"/>
  <unicode hex="005E"/>
  <outline>
    <contour>
      <point x="471" y="382" type="line"/>
      <point x="466" y="382" type="line"/>
      <point x="270" y="696" type="line"/>
      <point x="74" y="382" type="line"/>
      <point x="69" y="382" type="line"/>
      <point x="268" y="700" type="line"/>
      <point x="272" y="700" type="line"/>
    </contour>
  </outline>
</glyph>
<glyph name="grave" format="1">
  <advance width="500"/>
  <unicode hex="0060"/>
  <outline>
    <contour>
      <point x="293" y="595" type="line"/>
      <point x="288" y="595" type="line"/>
      <point x="185" y="725" type="line"/>
      <point x="190" y="725" type="line"/>
    </contour>
  </outline>
</glyph>
<glyph name="a" format="1">
  <advance width="523"/>
  <unicode hex="0061"/>
  <outline>
    <contour>
      <point x="438" y="0" type="line"/>
      <point x="434" y="0" type="line"/>
      <point x="434" y="108" type="line"/>
      <point x="391" y="38"/>
      <point x="318" y="-11"/>
      <point x="238" y="-11" type="curve" smooth="yes"/>
      <point x="147" y="-11"/>
      <point x="56" y="26"/>
      <point x="56" y="142" type="curve" smooth="yes"/>
      <point x="56" y="256"/>
      <point x="144" y="314"/>
      <point x="249" y="314" type="curve" smooth="yes"/>
      <point x="326" y="314"/>
      <point x="390" y="289"/>
      <point x="434" y="263" type="curve"/>
      <point x="434" y="361" type="line" smooth="yes"/>
      <point x="434" y="490"/>
      <point x="381" y="532"/>
      <point x="267" y="532" type="curve" smooth="yes"/>
      <point x="202" y="532"/>
      <point x="154" y="514"/>
      <point x="107" y="491" type="curve"/>
      <point x="105" y="494" type="line"/>
      <point x="152" y="517"/>
      <point x="200" y="536"/>
      <point x="267" y="536" type="curve" smooth="yes"/>
      <point x="383" y="536"/>
      <point x="438" y="493"/>
      <point x="438" y="362" type="curve" smooth="yes"/>
    </contour>
    <contour>
      <point x="434" y="114" type="curve"/>
      <point x="434" y="259" type="line"/>
      <point x="387" y="286"/>
      <point x="324" y="310"/>
      <point x="249" y="310" type="curve" smooth="yes"/>
      <point x="146" y="310"/>
      <point x="60" y="254"/>
      <point x="60" y="142" type="curve" smooth="yes"/>
      <point x="60" y="29"/>
      <point x="150" y="-7"/>
      <point x="238" y="-7" type="curve" smooth="yes"/>
      <point x="319" y="-7"/>
      <point x="390" y="42"/>
    </contour>
  </outline>
</glyph>
<glyph name="b" format="1">
  <advance width="546"/>
  <unicode hex="0062"/>
  <outline>
    <contour>
      <point x="486" y="263" type="curve" smooth="yes"/>
      <point x="486" y="69"/>
      <point x="406" y="-11"/>
      <point x="285" y="-11" type="curve" smooth="yes"/>
      <point x="207" y="-11"/>
      <point x="139" y="39"/>
      <point x="94" y="109" type="curve"/>
      <point x="94" y="0" type="line"/>
      <point x="90" y="0" type="line"/>
      <point x="90" y="727" type="line"/>
      <point x="94" y="729" type="line"/>
      <point x="94" y="417" type="line"/>
      <point x="139" y="487"/>
      <point x="207" y="536"/>
      <point x="285" y="536" type="curve" smooth="yes"/>
      <point x="406" y="536"/>
      <point x="486" y="456"/>
    </contour>
    <contour>
      <point x="482" y="263" type="curve" smooth="yes"/>
      <point x="482" y="452"/>
      <point x="404" y="532"/>
      <point x="285" y="532" type="curve" smooth="yes"/>
      <point x="207" y="532"/>
      <point x="138" y="481"/>
      <point x="94" y="410" type="curve"/>
      <point x="94" y="116" type="line"/>
      <point x="138" y="45"/>
      <point x="207" y="-7"/>
      <point x="285" y="-7" type="curve" smooth="yes"/>
      <point x="404" y="-7"/>
      <point x="482" y="73"/>
    </contour>
  </outline>
</glyph>
<glyph name="c" format="1">
  <advance width="487"/>
  <unicode hex="0063"/>
  <outline>
    <contour>
      <point x="424" y="44" type="line"/>
      <point x="388" y="10"/>
      <point x="333" y="-11"/>
      <point x="270" y="-11" type="curve" smooth="yes"/>
      <point x="164" y="-11"/>
      <point x="60" y="75"/>
      <point x="60" y="263" type="curve" smooth="yes"/>
      <point x="60" y="444"/>
      <point x="165" y="536"/>
      <point x="271" y="536" type="curve" smooth="yes"/>
      <point x="345" y="536"/>
      <point x="385" y="513"/>
      <point x="421" y="483" type="curve"/>
      <point x="419" y="480" type="line"/>
      <point x="383" y="510"/>
      <point x="343" y="532"/>
      <point x="271" y="532" type="curve" smooth="yes"/>
      <point x="167" y="532"/>
      <point x="64" y="442"/>
      <point x="64" y="263" type="curve" smooth="yes"/>
      <point x="64" y="79"/>
      <point x="166" y="-7"/>
      <point x="270" y="-7" type="curve" smooth="yes"/>
      <point x="332" y="-7"/>
      <point x="386" y="14"/>
      <point x="422" y="47" type="curve"/>
    </contour>
  </outline>
</glyph>
<glyph name="d" format="1">
  <advance width="546"/>
  <unicode hex="0064"/>
  <outline>
    <contour>
      <point x="456" y="0" type="line"/>
      <point x="452" y="0" type="line"/>
      <point x="452" y="108" type="line"/>
      <point x="407" y="38"/>
      <point x="339" y="-11"/>
      <point x="261" y="-11" type="curve" smooth="yes"/>
      <point x="140" y="-11"/>
      <point x="60" y="69"/>
      <point x="60" y="262" type="curve" smooth="yes"/>
      <point x="60" y="456"/>
      <point x="140" y="536"/>
      <point x="261" y="536" type="curve" smooth="yes"/>
      <point x="339" y="536"/>
      <point x="407" y="486"/>
      <point x="452" y="416" type="curve"/>
      <point x="452" y="727" type="line"/>
      <point x="456" y="729" type="line"/>
    </contour>
    <contour>
      <point x="452" y="115" type="curve"/>
      <point x="452" y="409" type="line"/>
      <point x="408" y="480"/>
      <point x="339" y="532"/>
      <point x="261" y="532" type="curve" smooth="yes"/>
      <point x="142" y="532"/>
      <point x="64" y="452"/>
      <point x="64" y="262" type="curve" smooth="yes"/>
      <point x="64" y="73"/>
      <point x="142" y="-7"/>
      <point x="261" y="-7" type="curve" smooth="yes"/>
      <point x="339" y="-7"/>
      <point x="408" y="44"/>
    </contour>
  </outline>
</glyph>
<glyph name="e" format="1">
  <advance width="536"/>
  <unicode hex="0065"/>
  <outline>
    <contour>
      <point x="468" y="268" type="curve" smooth="yes"/>
      <point x="468" y="266" type="line"/>
      <point x="64" y="266" type="line"/>
      <point x="64" y="89"/>
      <point x="153" y="-7"/>
      <point x="264" y="-7" type="curve" smooth="yes"/>
      <point x="342" y="-7"/>
      <point x="389" y="10"/>
      <point x="437" y="37" type="curve"/>
      <point x="438" y="33" type="line"/>
      <point x="390" y="6"/>
      <point x="342" y="-11"/>
      <point x="264" y="-11" type="curve" smooth="yes"/>
      <point x="152" y="-11"/>
      <point x="60" y="87"/>
      <point x="60" y="263" type="curve" smooth="yes"/>
      <point x="60" y="438"/>
      <point x="154" y="536"/>
      <point x="266" y="536" type="curve" smooth="yes"/>
      <point x="378" y="536"/>
      <point x="468" y="444"/>
    </contour>
    <contour>
      <point x="464" y="270" type="line"/>
      <point x="463" y="443"/>
      <point x="376" y="532"/>
      <point x="266" y="532" type="curve" smooth="yes"/>
      <point x="157" y="532"/>
      <point x="66" y="439"/>
      <point x="64" y="270" type="curve"/>
    </contour>
  </outline>
</glyph>
<glyph name="f" format="1">
  <advance width="324"/>
  <unicode hex="0066"/>
  <outline>
    <contour>
      <point x="293" y="708" type="line"/>
      <point x="280" y="715"/>
      <point x="260" y="720"/>
      <point x="229" y="720" type="curve" smooth="yes"/>
      <point x="180" y="720"/>
      <point x="137" y="694"/>
      <point x="137" y="609" type="curve" smooth="yes"/>
      <point x="137" y="525" type="line"/>
      <point x="282" y="525" type="line"/>
      <point x="282" y="521" type="line"/>
      <point x="137" y="521" type="line"/>
      <point x="137" y="0" type="line"/>
      <point x="133" y="0" type="line"/>
      <point x="133" y="521" type="line"/>
      <point x="48" y="521" type="line"/>
      <point x="48" y="525" type="line"/>
      <point x="133" y="525" type="line"/>
      <point x="133" y="609" type="line" smooth="yes"/>
      <point x="133" y="696"/>
      <point x="178" y="724"/>
      <point x="229" y="724" type="curve" smooth="yes"/>
      <point x="262" y="724"/>
      <point x="283" y="717"/>
      <point x="294" y="712" type="curve"/>
    </contour>
  </outline>
</glyph>
<glyph name="g" format="1">
  <advance width="546"/>
  <unicode hex="0067"/>
  <outline>
    <contour>
      <point x="456" y="48" type="line" smooth="yes"/>
      <point x="456" y="-121"/>
      <point x="387" y="-189"/>
      <point x="185" y="-194" type="curve"/>
      <point x="184" y="-190" type="line"/>
      <point x="384" y="-185"/>
      <point x="452" y="-120"/>
      <point x="452" y="48" type="curve" smooth="yes"/>
      <point x="452" y="108" type="line"/>
      <point x="407" y="38"/>
      <point x="339" y="-11"/>
      <point x="261" y="-11" type="curve" smooth="yes"/>
      <point x="140" y="-11"/>
      <point x="60" y="69"/>
      <point x="60" y="262" type="curve" smooth="yes"/>
      <point x="60" y="456"/>
      <point x="140" y="536"/>
      <point x="261" y="536" type="curve" smooth="yes"/>
      <point x="339" y="536"/>
      <point x="407" y="486"/>
      <point x="452" y="416" type="curve"/>
      <point x="452" y="525" type="line"/>
      <point x="456" y="525" type="line"/>
    </contour>
    <contour>
      <point x="452" y="115" type="curve"/>
      <point x="452" y="409" type="line"/>
      <point x="408" y="480"/>
      <point x="339" y="532"/>
      <point x="261" y="532" type="curve" smooth="yes"/>
      <point x="142" y="532"/>
      <point x="64" y="452"/>
      <point x="64" y="262" type="curve" smooth="yes"/>
      <point x="64" y="73"/>
      <point x="142" y="-7"/>
      <point x="261" y="-7" type="curve" smooth="yes"/>
      <point x="339" y="-7"/>
      <point x="408" y="44"/>
    </contour>
  </outline>
</glyph>
<glyph name="h" format="1">
  <advance width="563"/>
  <unicode hex="0068"/>
  <outline>
    <contour>
      <point x="478" y="0" type="line"/>
      <point x="474" y="0" type="line"/>
      <point x="474" y="324" type="line" smooth="yes"/>
      <point x="474" y="472"/>
      <point x="399" y="532"/>
      <point x="288" y="532" type="curve" smooth="yes"/>
      <point x="204" y="532"/>
      <point x="94" y="490"/>
      <point x="94" y="326" type="curve" smooth="yes"/>
      <point x="94" y="0" type="line"/>
      <point x="90" y="0" type="line"/>
      <point x="90" y="727" type="line"/>
      <point x="94" y="729" type="line"/>
      <point x="94" y="376" type="line"/>
      <point x="109" y="484"/>
      <point x="192" y="536"/>
      <point x="288" y="536" type="curve" smooth="yes"/>
      <point x="401" y="536"/>
      <point x="478" y="476"/>
      <point x="478" y="325" type="curve" smooth="yes"/>
    </contour>
  </outline>
</glyph>
<glyph name="i" format="1">
  <advance width="194"/>
  <unicode hex="0069"/>
  <outline>
    <contour>
      <point x="99" y="640" type="line"/>
      <point x="95" y="640" type="line"/>
      <point x="95" y="700" type="line"/>
      <point x="99" y="700" type="line"/>
    </contour>
    <contour>
      <point x="99" y="0" type="line"/>
      <point x="95" y="0" type="line"/>
      <point x="95" y="525" type="line"/>
      <point x="99" y="525" type="line"/>
    </contour>
  </outline>
</glyph>
<glyph name="j" format="1">
  <advance width="194"/>
  <unicode hex="006A"/>
  <outline>
    <contour>
      <point x="99" y="640" type="line"/>
      <point x="95" y="640" type="line"/>
      <point x="95" y="700" type="line"/>
      <point x="99" y="700" type="line"/>
    </contour>
    <contour>
      <point x="99" y="-20" type="line" smooth="yes"/>
      <point x="99" y="-126"/>
      <point x="74" y="-173"/>
      <point x="4" y="-193" type="curve"/>
      <point x="2" y="-190" type="line"/>
      <point x="72" y="-170"/>
      <point x="95" y="-124"/>
      <point x="95" y="-20" type="curve" smooth="yes"/>
      <point x="95" y="525" type="line"/>
      <point x="99" y="525" type="line"/>
    </contour>
  </outline>
</glyph>
<glyph name="k" format="1">
  <advance width="480"/>
  <unicode hex="006B"/>
  <outline>
    <contour>
      <point x="435" y="0" type="line"/>
      <point x="431" y="0" type="line"/>
      <point x="225" y="310" type="line"/>
      <point x="94" y="141" type="line"/>
      <point x="94" y="0" type="line"/>
      <point x="90" y="0" type="line"/>
      <point x="90" y="727" type="line"/>
      <point x="94" y="729" type="line"/>
      <point x="94" y="146" type="line"/>
      <point x="388" y="525" type="line"/>
      <point x="392" y="525" type="line"/>
      <point x="227" y="313" type="line"/>
    </contour>
  </outline>
</glyph>
<glyph name="l" format="1">
  <advance width="194"/>
  <unicode hex="006C"/>
  <outline>
    <contour>
      <point x="99" y="0" type="line"/>
      <point x="95" y="0" type="line"/>
      <point x="95" y="727" type="line"/>
      <point x="99" y="729" type="line"/>
    </contour>
  </outline>
</glyph>
<glyph name="m" format="1">
  <advance width="915"/>
  <unicode hex="006D"/>
  <outline>
    <contour>
      <point x="850" y="0" type="line"/>
      <point x="846" y="0" type="line"/>
      <point x="846" y="324" type="line" smooth="yes"/>
      <point x="846" y="472"/>
      <point x="768" y="532"/>
      <point x="663" y="532" type="curve" smooth="yes"/>
      <point x="583" y="532"/>
      <point x="472" y="490"/>
      <point x="472" y="326" type="curve" smooth="yes"/>
      <point x="472" y="0" type="line"/>
      <point x="468" y="0" type="line"/>
      <point x="468" y="326" type="line" smooth="yes"/>
      <point x="468" y="474"/>
      <point x="390" y="532"/>
      <point x="285" y="532" type="curve" smooth="yes"/>
      <point x="205" y="532"/>
      <point x="94" y="490"/>
      <point x="94" y="326" type="curve" smooth="yes"/>
      <point x="94" y="0" type="line"/>
      <point x="90" y="0" type="line"/>
      <point x="90" y="525" type="line"/>
      <point x="94" y="525" type="line"/>
      <point x="94" y="376" type="line"/>
      <point x="109" y="484"/>
      <point x="194" y="536"/>
      <point x="285" y="536" type="curve" smooth="yes"/>
      <point x="392" y="536"/>
      <point x="460" y="475"/>
      <point x="470" y="365" type="curve"/>
      <point x="483" y="485"/>
      <point x="572" y="536"/>
      <point x="663" y="536" type="curve" smooth="yes"/>
      <point x="770" y="536"/>
      <point x="850" y="476"/>
      <point x="850" y="325" type="curve" smooth="yes"/>
    </contour>
  </outline>
</glyph>
<glyph name="o" format="1">
  <advance width="568"/>
  <unicode hex="006F"/>
  <outline>
    <contour>
      <point x="508" y="263" type="curve" smooth="yes"/>
      <point x="508" y="87"/>
      <point x="408" y="-11"/>
      <point x="284" y="-11" type="curve" smooth="yes"/>
      <point x="160" y="-11"/>
      <point x="60" y="87"/>
      <point x="60" y="263" type="curve" smooth="yes"/>
      <point x="60" y="438"/>
      <point x="160" y="536"/>
      <point x="284" y="536" type="curve" smooth="yes"/>
      <point x="408" y="536"/>
      <point x="508" y="438"/>
    </contour>
    <contour>
      <point x="504" y="263" type="curve" smooth="yes"/>
      <point x="504" y="436"/>
      <point x="406" y="532"/>
      <point x="284" y="532" type="curve" smooth="yes"/>
      <point x="162" y="532"/>
      <point x="64" y="436"/>
      <point x="64" y="263" type="curve" smooth="yes"/>
      <point x="64" y="89"/>
      <point x="162" y="-7"/>
      <point x="284" y="-7" type="curve" smooth="yes"/>
      <point x="406" y="-7"/>
      <point x="504" y="89"/>
    </contour>
  </outline>
</glyph>
<glyph name="r" format="1">
  <advance width="381"/>
  <unicode hex="0072"/>
  <outline>
    <contour>
      <point x="348" y="521" type="curve"/>
      <point x="346" y="517" type="line"/>
      <point x="329" y="526"/>
      <point x="301" y="532"/>
      <point x="263" y="532" type="curve" smooth="yes"/>
      <point x="201" y="532"/>
      <point x="94" y="490"/>
      <point x="94" y="326" type="curve" smooth="yes"/>
      <point x="94" y="0" type="line"/>
      <point x="90" y="0" type="line"/>
      <point x="90" y="525" type="line"/>
      <point x="94" y="525" type="line"/>
      <point x="94" y="376" type="line"/>
      <point x="109" y="484"/>
      <point x="188" y="536"/>
      <point x="263" y="536" type="curve" smooth="yes"/>
      <point x="303" y="536"/>
      <point x="330" y="530"/>
    </contour>
  </outline>
</glyph>
<glyph name="s" format="1">
  <advance width="425"/>
  <unicode hex="0073"/>
  <outline>
    <contour>
      <point x="362" y="119" type="curve" smooth="yes"/>
      <point x="362" y="38"/>
      <point x="300" y="-11"/>
      <point x="204" y="-11" type="curve" smooth="yes"/>
      <point x="137" y="-11"/>
      <point x="91" y="11"/>
      <point x="51" y="41" type="curve"/>
      <point x="54" y="44" type="line"/>
      <point x="94" y="14"/>
      <point x="139" y="-7"/>
      <point x="204" y="-7" type="curve" smooth="yes"/>
      <point x="298" y="-7"/>
      <point x="358" y="40"/>
      <point x="358" y="119" type="curve" smooth="yes"/>
      <point x="358" y="189"/>
      <point x="329" y="222"/>
      <point x="213" y="270" type="curve" smooth="yes"/>
      <point x="97" y="318"/>
      <point x="66" y="346"/>
      <point x="66" y="420" type="curve" smooth="yes"/>
      <point x="66" y="482"/>
      <point x="119" y="536"/>
      <point x="205" y="536" type="curve" smooth="yes"/>
      <point x="278" y="536"/>
      <point x="324" y="514"/>
      <point x="353" y="490" type="curve"/>
      <point x="350" y="487" type="line"/>
      <point x="321" y="511"/>
      <point x="276" y="532"/>
      <point x="205" y="532" type="curve" smooth="yes"/>
      <point x="121" y="532"/>
      <point x="70" y="480"/>
      <point x="70" y="420" type="curve" smooth="yes"/>
      <point x="70" y="348"/>
      <point x="102" y="320"/>
      <point x="214" y="274" type="curve" smooth="yes"/>
      <point x="333" y="224"/>
      <point x="362" y="191"/>
    </contour>
  </outline>
</glyph>
<glyph name="t" format="1">
  <advance width="316"/>
  <unicode hex="0074"/>
  <outline>
    <contour>
      <point x="266" y="18" type="curve"/>
      <point x="269" y="15" type="line"/>
      <point x="245" y="2"/>
      <point x="213" y="-7"/>
      <point x="178" y="-7" type="curve" smooth="yes"/>
      <point x="129" y="-7"/>
      <point x="104" y="25"/>
      <point x="104" y="73" type="curve" smooth="yes"/>
      <point x="104" y="521" type="line"/>
      <point x="33" y="521" type="line"/>
      <point x="33" y="525" type="line"/>
      <point x="104" y="525" type="line"/>
      <point x="104" y="727" type="line"/>
      <point x="108" y="729" type="line"/>
      <point x="108" y="525" type="line"/>
      <point x="258" y="525" type="line"/>
      <point x="258" y="521" type="line"/>
      <point x="108" y="521" type="line"/>
      <point x="108" y="73" type="line" smooth="yes"/>
      <point x="108" y="27"/>
      <point x="132" y="-3"/>
      <point x="178" y="-3" type="curve" smooth="yes"/>
      <point x="212" y="-3"/>
      <point x="241" y="5"/>
    </contour>
  </outline>
</glyph>
<glyph name="u" format="1">
  <advance width="563"/>
  <unicode hex="0075"/>
  <outline>
    <contour>
      <point x="473" y="0" type="line"/>
      <point x="469" y="0" type="line"/>
      <point x="469" y="149" type="line"/>
      <point x="454" y="41"/>
      <point x="371" y="-11"/>
      <point x="275" y="-11" type="curve" smooth="yes"/>
      <point x="162" y="-11"/>
      <point x="85" y="49"/>
      <point x="85" y="200" type="curve" smooth="yes"/>
      <point x="85" y="525" type="line"/>
      <point x="89" y="525" type="line"/>
      <point x="89" y="201" type="line" smooth="yes"/>
      <point x="89" y="53"/>
      <point x="164" y="-7"/>
      <point x="275" y="-7" type="curve" smooth="yes"/>
      <point x="359" y="-7"/>
      <point x="469" y="35"/>
      <point x="469" y="199" type="curve" smooth="yes"/>
      <point x="469" y="525" type="line"/>
      <point x="473" y="525" type="line"/>
    </contour>
  </outline>
</glyph>
<glyph name="v" format="1">
  <advance width="492"/>
  <unicode hex="0076"/>
  <outline>
    <contour>
      <point x="444" y="525" type="line"/>
      <point x="248" y="-2" type="line"/>
      <point x="244" y="-2" type="line"/>
      <point x="48" y="525" type="line"/>
      <point x="52" y="525" type="line"/>
      <point x="246" y="4" type="line"/>
      <point x="440" y="525" type="line"/>
    </contour>
  </outline>
</glyph>
<glyph name="w" format="1">
  <advance width="708"/>
  <unicode hex="0077"/>
  <outline>
    <contour>
      <point x="658" y="525" type="line"/>
      <point x="519" y="-2" type="line"/>
      <point x="515" y="-2" type="line"/>
      <point x="354" y="519" type="line"/>
      <point x="193" y="-2" type="line"/>
      <point x="189" y="-2" type="line"/>
      <point x="50" y="525" type="line"/>
      <point x="54" y="525" type="line"/>
      <point x="191" y="6" type="line"/>
      <point x="352" y="527" type="line"/>
      <point x="356" y="527" type="line"/>
      <point x="517" y="6" type="line"/>
      <point x="654" y="525" type="line"/>
    </contour>
  </outline>
</glyph>
<glyph name="x" format="1">
  <advance width="476"/>
  <unicode hex="0078"/>
  <outline>
    <contour>
      <point x="415" y="0" type="line"/>
      <point x="410" y="0" type="line"/>
      <point x="238" y="274" type="line"/>
      <point x="66" y="0" type="line"/>
      <point x="61" y="0" type="line"/>
      <point x="235" y="278" type="line"/>
      <point x="81" y="525" type="line"/>
      <point x="86" y="525" type="line"/>
      <point x="238" y="282" type="line"/>
      <point x="390" y="525" type="line"/>
      <point x="395" y="525" type="line"/>
      <point x="241" y="279" type="line"/>
    </contour>
  </outline>
</glyph>
<glyph name="y" format="1">
  <advance width="492"/>
  <unicode hex="0079"/>
  <outline>
    <contour>
      <point x="444" y="525" type="line"/>
      <point x="180" y="-185" type="line"/>
      <point x="175" y="-185" type="line"/>
      <point x="244" y="-1" type="line"/>
      <point x="48" y="525" type="line"/>
      <point x="53" y="525" type="line"/>
      <point x="246" y="5" type="line"/>
      <point x="439" y="525" type="line"/>
    </contour>
  </outline>
</glyph>
<glyph name="z" format="1">
  <advance width="490"/>
  <unicode hex="007A"/>
  <outline>
    <contour>
      <point x="419" y="0" type="line"/>
      <point x="62" y="0" type="line"/>
      <point x="62" y="4" type="line"/>
      <point x="414" y="521" type="line"/>
      <point x="95" y="521" type="line"/>
      <point x="95" y="525" type="line"/>
      <point x="419" y="525" type="line"/>
      <point x="419" y="521" type="line"/>
      <point x="67" y="4" type="line"/>
      <point x="419" y="4" type="line"/>
    </contour>
  </outline>
</glyph>
<glyph name="braceleft" format="1">
  <advance width="350"/>
  <unicode hex="007B"/>
  <outline>
    <contour>
      <point x="295" y="-109" type="line"/>
      <point x="205" y="-99"/>
      <point x="154" y="-61"/>
      <point x="154" y="66" type="curve" smooth="yes"/>
      <point x="154" y="223" type="line" smooth="yes"/>
      <point x="154" y="250"/>
      <point x="135" y="294"/>
      <point x="86" y="294" type="curve" smooth="yes"/>
      <point x="51" y="294" type="line"/>
      <point x="51" y="298" type="line"/>
      <point x="86" y="298" type="line" smooth="yes"/>
      <point x="135" y="298"/>
      <point x="154" y="342"/>
      <point x="154" y="369" type="curve" smooth="yes"/>
      <point x="154" y="526" type="line" smooth="yes"/>
      <point x="154" y="653"/>
      <point x="205" y="691"/>
      <point x="295" y="701" type="curve"/>
      <point x="295" y="697" type="line"/>
      <point x="207" y="687"/>
      <point x="158" y="651"/>
      <point x="158" y="526" type="curve" smooth="yes"/>
      <point x="158" y="369" type="line" smooth="yes"/>
      <point x="158" y="338"/>
      <point x="140" y="304"/>
      <point x="101" y="296" type="curve"/>
      <point x="140" y="288"/>
      <point x="158" y="254"/>
      <point x="158" y="223" type="curve" smooth="yes"/>
      <point x="158" y="66" type="line" smooth="yes"/>
      <point x="158" y="-59"/>
      <point x="207" y="-95"/>
      <point x="295" y="-105" type="curve"/>
    </contour>
  </outline>
</glyph>
<glyph name="bar" format="1">
  <advance width="274"/>
  <unicode hex="007C"/>
  <outline>
    <contour>
      <point x="139" y="-185" type="line"/>
      <point x="135" y="-185" type="line"/>
      <point x="135" y="800" type="line"/>
      <point x="139" y="800" type="line"/>
    </contour>
  </outline>
</glyph>
<glyph name="braceright" format="1">
  <advance width="350"/>
  <unicode hex="007D"/>
  <outline>
    <contour>
      <point x="299" y="294" type="line"/>
      <point x="264" y="294" type="line" smooth="yes"/>
      <point x="215" y="294"/>
      <point x="196" y="250"/>
      <point x="196" y="223" type="curve" smooth="yes"/>
      <point x="196" y="66" type="line" smooth="yes"/>
      <point x="196" y="-61"/>
      <point x="145" y="-99"/>
      <point x="55" y="-109" type="curve"/>
      <point x="55" y="-105" type="line"/>
      <point x="143" y="-95"/>
      <point x="192" y="-59"/>
      <point x="192" y="66" type="curve" smooth="yes"/>
      <point x="192" y="223" type="line" smooth="yes"/>
      <point x="192" y="254"/>
      <point x="210" y="288"/>
      <point x="249" y="296" type="curve"/>
      <point x="210" y="304"/>
      <point x="192" y="338"/>
      <point x="192" y="369" type="curve" smooth="yes"/>
      <point x="192" y="526" type="line" smooth="yes"/>
      <point x="192" y="651"/>
      <point x="143" y="687"/>
      <point x="55" y="697" type="curve"/>
      <point x="55" y="701" type="line"/>
      <point x="145" y="691"/>
      <point x="196" y="653"/>
      <point x="196" y="526" type="curve" smooth="yes"/>
      <point x="196" y="369" type="line" smooth="yes"/>
      <point x="196" y="342"/>
      <point x="215" y="298"/>
      <point x="264" y="298" type="curve" smooth="yes"/>
      <point x="299" y="298" type="line"/>
    </contour>
  </outline>
</glyph>
<glyph name="asciitilde" format="1">
  <advance width="520"/>
  <unicode hex="007E"/>
  <outline>
    <contour>
      <point x="445" y="402" type="line"/>
      <point x="418" y="353"/>
      <point x="390" y="332"/>
      <point x="351" y="332" type="curve" smooth="yes"/>
      <point x="318" y="332"/>
      <point x="290" y="347"/>
      <point x="259" y="369" type="curve" smooth="yes"/>
      <point x="228" y="391"/>
      <point x="202" y="406"/>
      <point x="169" y="406" type="curve" smooth="yes"/>
      <point x="132" y="406"/>
      <point x="104" y="385"/>
      <point x="79" y="338" type="curve"/>
      <point x="75" y="340" type="line"/>
      <point x="102" y="389"/>
      <point x="130" y="410"/>
      <point x="169" y="410" type="curve" smooth="yes"/>
      <point x="202" y="410"/>
      <point x="230" y="395"/>
      <point x="261" y="373" type="curve" smooth="yes"/>
      <point x="292" y="351"/>
      <point x="318" y="336"/>
      <point x="351" y="336" type="curve" smooth="yes"/>
      <point x="388" y="336"/>
      <point x="416" y="357"/>
      <point x="441" y="404" type="curve"/>
    </contour>
  </outline>
</glyph>
<glyph name="exclamdown" format="1">
  <advance width="218"/>
  <unicode hex="00A1"/>
  <outline>
    <contour>
      <point x="111" y="640" type="line"/>
      <point x="107" y="640" type="line"/>
      <point x="107" y="700" type="line"/>
      <point x="111" y="700" type="line"/>
    </contour>
    <contour>
      <point x="111" y="0" type="line"/>
      <point x="107" y="0" type="line"/>
      <point x="107" y="329" type="line"/>
      <point x="107" y="570" type="line"/>
      <point x="111" y="570" type="line"/>
      <point x="111" y="329" type="line"/>
    </contour>
  </outline>
</glyph>
<glyph name="cent" format="1">
  <advance width="487"/>
  <unicode hex="00A2"/>
  <outline>
    <contour>
      <point x="424" y="138" type="line"/>
      <point x="388" y="104"/>
      <point x="334" y="83"/>
      <point x="271" y="83" type="curve"/>
      <point x="271" y="-11" type="line"/>
      <point x="267" y="-11" type="line"/>
      <point x="267" y="83" type="line"/>
      <point x="162" y="85"/>
      <point x="60" y="171"/>
      <point x="60" y="357" type="curve" smooth="yes"/>
      <point x="60" y="536"/>
      <point x="162" y="628"/>
      <point x="267" y="630" type="curve"/>
      <point x="267" y="711" type="line"/>
      <point x="271" y="711" type="line"/>
      <point x="271" y="630" type="line"/>
      <point x="345" y="630"/>
      <point x="385" y="607"/>
      <point x="421" y="577" type="curve"/>
      <point x="419" y="574" type="line"/>
      <point x="383" y="604"/>
      <point x="343" y="626"/>
      <point x="271" y="626" type="curve" smooth="yes"/>
      <point x="167" y="626"/>
      <point x="64" y="536"/>
      <point x="64" y="357" type="curve" smooth="yes"/>
      <point x="64" y="173"/>
      <point x="166" y="87"/>
      <point x="270" y="87" type="curve" smooth="yes"/>
      <point x="332" y="87"/>
      <point x="386" y="108"/>
      <point x="422" y="141" type="curve"/>
    </contour>
  </outline>
</glyph>
<glyph name="sterling" format="1">
  <advance width="545"/>
  <unicode hex="00A3"/>
  <outline>
    <contour>
      <point x="495" y="0" type="line"/>
      <point x="72" y="0" type="line"/>
      <point x="72" y="3" type="line"/>
      <point x="147" y="75"/>
      <point x="185" y="142"/>
      <point x="185" y="250" type="curve" smooth="yes"/>
      <point x="185" y="278"/>
      <point x="182" y="302"/>
      <point x="176" y="324" type="curve"/>
      <point x="73" y="324" type="line"/>
      <point x="73" y="328" type="line"/>
      <point x="175" y="328" type="line"/>
      <point x="169" y="351"/>
      <point x="160" y="372"/>
      <point x="151" y="392" type="curve" smooth="yes"/>
      <point x="131" y="438"/>
      <point x="110" y="480"/>
      <point x="110" y="543" type="curve" smooth="yes"/>
      <point x="110" y="644"/>
      <point x="181" y="711"/>
      <point x="300" y="711" type="curve" smooth="yes"/>
      <point x="367" y="711"/>
      <point x="425" y="690"/>
      <point x="474" y="653" type="curve"/>
      <point x="472" y="650" type="line"/>
      <point x="423" y="687"/>
      <point x="367" y="707"/>
      <point x="300" y="707" type="curve" smooth="yes"/>
      <point x="183" y="707"/>
      <point x="114" y="642"/>
      <point x="114" y="543" type="curve" smooth="yes"/>
      <point x="114" y="480"/>
      <point x="135" y="438"/>
      <point x="155" y="393" type="curve" smooth="yes"/>
      <point x="164" y="372"/>
      <point x="173" y="352"/>
      <point x="179" y="328" type="curve"/>
      <point x="356" y="328" type="line"/>
      <point x="356" y="324" type="line"/>
      <point x="180" y="324" type="line"/>
      <point x="185" y="302"/>
      <point x="189" y="278"/>
      <point x="189" y="250" type="curve" smooth="yes"/>
      <point x="189" y="147"/>
      <point x="154" y="76"/>
      <point x="78" y="4" type="curve"/>
      <point x="495" y="4" type="line"/>
    </contour>
  </outline>
</glyph>
<glyph name="yen" format="1">
  <advance width="608"/>
  <unicode hex="00A5"/>
  <outline>
    <contour>
      <point x="543" y="700" type="line"/>
      <point x="306" y="301" type="line"/>
      <point x="306" y="172" type="line"/>
      <point x="444" y="172" type="line"/>
      <point x="444" y="168" type="line"/>
      <point x="306" y="168" type="line"/>
      <point x="306" y="0" type="line"/>
      <point x="302" y="0" type="line"/>
      <point x="302" y="168" type="line"/>
      <point x="164" y="168" type="line"/>
      <point x="164" y="172" type="line"/>
      <point x="302" y="172" type="line"/>
      <point x="302" y="301" type="line"/>
      <point x="65" y="700" type="line"/>
      <point x="70" y="700" type="line"/>
      <point x="304" y="306" type="line"/>
      <point x="538" y="700" type="line"/>
    </contour>
  </outline>
</glyph>
<glyph name="section" format="1">
  <advance width="584"/>
  <unicode hex="00A7"/>
  <outline>
    <contour>
      <point x="521" y="261" type="curve" smooth="yes"/>
      <point x="521" y="170"/>
      <point x="442" y="111"/>
      <point x="335" y="89" type="curve"/>
      <point x="428" y="52"/>
      <point x="455" y="18"/>
      <point x="455" y="-40" type="curve" smooth="yes"/>
      <point x="455" y="-113"/>
      <point x="397" y="-164"/>
      <point x="295" y="-164" type="curve" smooth="yes"/>
      <point x="221" y="-164"/>
      <point x="166" y="-144"/>
      <point x="121" y="-113" type="curve"/>
      <point x="124" y="-110" type="line"/>
      <point x="171" y="-141"/>
      <point x="224" y="-160"/>
      <point x="295" y="-160" type="curve" smooth="yes"/>
      <point x="395" y="-160"/>
      <point x="451" y="-111"/>
      <point x="451" y="-40" type="curve" smooth="yes"/>
      <point x="451" y="31"/>
      <point x="409" y="62"/>
      <point x="266" y="109" type="curve" smooth="yes"/>
      <point x="110" y="161"/>
      <point x="63" y="200"/>
      <point x="63" y="286" type="curve" smooth="yes"/>
      <point x="63" y="377"/>
      <point x="142" y="436"/>
      <point x="249" y="458" type="curve"/>
      <point x="156" y="495"/>
      <point x="129" y="529"/>
      <point x="129" y="587" type="curve" smooth="yes"/>
      <point x="129" y="660"/>
      <point x="187" y="711"/>
      <point x="289" y="711" type="curve" smooth="yes"/>
      <point x="363" y="711"/>
      <point x="418" y="691"/>
      <point x="463" y="660" type="curve"/>
      <point x="460" y="657" type="line"/>
      <point x="413" y="688"/>
      <point x="360" y="707"/>
      <point x="289" y="707" type="curve" smooth="yes"/>
      <point x="189" y="707"/>
      <point x="133" y="658"/>
      <point x="133" y="587" type="curve" smooth="yes"/>
      <point x="133" y="516"/>
      <point x="175" y="485"/>
      <point x="318" y="438" type="curve" smooth="yes"/>
      <point x="474" y="386"/>
      <point x="521" y="347"/>
    </contour>
    <contour>
      <point x="517" y="261" type="curve" smooth="yes"/>
      <point x="517" y="345"/>
      <point x="470" y="384"/>
      <point x="316" y="434" type="curve" smooth="yes"/>
      <point x="294" y="441"/>
      <point x="274" y="449"/>
      <point x="255" y="456" type="curve"/>
      <point x="144" y="433"/>
      <point x="67" y="377"/>
      <point x="67" y="286" type="curve" smooth="yes"/>
      <point x="67" y="202"/>
      <point x="114" y="163"/>
      <point x="268" y="113" type="curve" smooth="yes"/>
      <point x="290" y="106"/>
      <point x="310" y="98"/>
      <point x="329" y="91" type="curve"/>
      <point x="440" y="114"/>
      <point x="517" y="170"/>
    </contour>
  </outline>
</glyph>
<glyph name="dieresis" format="1">
  <advance width="500"/>
  <unicode hex="00A8"/>
  <outline>
    <contour>
      <point x="350" y="595" type="line"/>
      <point x="346" y="595" type="line"/>
      <point x="346" y="665" type="line"/>
      <point x="350" y="665" type="line"/>
    </contour>
    <contour>
      <point x="154" y="595" type="line"/>
      <point x="150" y="595" type="line"/>
      <point x="150" y="665" type="line"/>
      <point x="154" y="665" type="line"/>
    </contour>
  </outline>
</glyph>
<glyph name="copyright" format="1">
  <advance width="836"/>
  <unicode hex="00A9"/>
  <outline>
    <contour>
      <point x="779" y="350" type="curve" smooth="yes"/>
      <point x="779" y="141"/>
      <point x="627" y="-11"/>
      <point x="418" y="-11" type="curve" smooth="yes"/>
      <point x="209" y="-11"/>
      <point x="57" y="141"/>
      <point x="57" y="350" type="curve" smooth="yes"/>
      <point x="57" y="559"/>
      <point x="209" y="711"/>
      <point x="418" y="711" type="curve" smooth="yes"/>
      <point x="627" y="711"/>
      <point x="779" y="559"/>
    </contour>
    <contour>
      <point x="775" y="350" type="curve" smooth="yes"/>
      <point x="775" y="557"/>
      <point x="625" y="707"/>
      <point x="418" y="707" type="curve" smooth="yes"/>
      <point x="211" y="707"/>
      <point x="61" y="557"/>
      <point x="61" y="350" type="curve" smooth="yes"/>
      <point x="61" y="143"/>
      <point x="211" y="-7"/>
      <point x="418" y="-7" type="curve" smooth="yes"/>
      <point x="625" y="-7"/>
      <point x="775" y="143"/>
    </contour>
    <contour>
      <point x="526" y="175" type="line"/>
      <point x="497" y="147"/>
      <point x="458" y="133"/>
      <point x="418" y="133" type="curve" smooth="yes"/>
      <point x="320" y="133"/>
      <point x="249" y="216"/>
      <point x="249" y="351" type="curve" smooth="yes"/>
      <point x="249" y="486"/>
      <point x="320" y="568"/>
      <point x="418" y="568" type="curve" smooth="yes"/>
      <point x="465" y="568"/>
      <point x="496" y="554"/>
      <point x="520" y="533" type="curve"/>
      <point x="517" y="530" type="line"/>
      <point x="494" y="551"/>
      <point x="464" y="564"/>
      <point x="418" y="564" type="curve" smooth="yes"/>
      <point x="322" y="564"/>
      <point x="253" y="482"/>
      <point x="253" y="351" type="curve" smooth="yes"/>
      <point x="253" y="220"/>
      <point x="322" y="137"/>
      <point x="418" y="137" type="curve" smooth="yes"/>
      <point x="457" y="137"/>
      <point x="495" y="151"/>
      <point x="523" y="178" type="curve"/>
    </contour>
  </outline>
</glyph>
<glyph name="ordfeminine" format="1">
  <advance width="459"/>
  <unicode hex="00AA"/>
  <outline>
    <contour>
      <point x="376" y="282" type="line"/>
      <point x="372" y="282" type="line"/>
      <point x="372" y="368" type="line"/>
      <point x="338" y="312"/>
      <point x="280" y="273"/>
      <point x="216" y="273" type="curve" smooth="yes"/>
      <point x="144" y="273"/>
      <point x="71" y="303"/>
      <point x="71" y="396" type="curve" smooth="yes"/>
      <point x="71" y="487"/>
      <point x="141" y="533"/>
      <point x="225" y="533" type="curve" smooth="yes"/>
      <point x="287" y="533"/>
      <point x="337" y="513"/>
      <point x="372" y="492" type="curve"/>
      <point x="372" y="571" type="line" smooth="yes"/>
      <point x="372" y="673"/>
      <point x="330" y="707"/>
      <point x="240" y="707" type="curve" smooth="yes"/>
      <point x="188" y="707"/>
      <point x="151" y="693"/>
      <point x="112" y="674" type="curve"/>
      <point x="110" y="677" type="line"/>
      <point x="148" y="696"/>
      <point x="186" y="711"/>
      <point x="240" y="711" type="curve" smooth="yes"/>
      <point x="331" y="711"/>
      <point x="376" y="676"/>
      <point x="376" y="571" type="curve" smooth="yes"/>
    </contour>
    <contour>
      <point x="372" y="374" type="curve"/>
      <point x="372" y="488" type="line"/>
      <point x="335" y="510"/>
      <point x="285" y="529"/>
      <point x="225" y="529" type="curve" smooth="yes"/>
      <point x="143" y="529"/>
      <point x="75" y="485"/>
      <point x="75" y="396" type="curve" smooth="yes"/>
      <point x="75" y="306"/>
      <point x="146" y="277"/>
      <point x="216" y="277" type="curve" smooth="yes"/>
      <point x="281" y="277"/>
      <point x="337" y="316"/>
    </contour>
  </outline>
</glyph>
<glyph name="guillemotleft" format="1">
  <advance width="530"/>
  <unicode hex="00AB"/>
  <outline>
    <contour>
      <point x="465" y="0" type="line"/>
      <point x="460" y="0" type="line"/>
      <point x="258" y="261" type="line"/>
      <point x="258" y="263" type="line"/>
      <point x="460" y="525" type="line"/>
      <point x="465" y="525" type="line"/>
      <point x="262" y="262" type="line"/>
    </contour>
    <contour>
      <point x="252" y="0" type="line"/>
      <point x="247" y="0" type="line"/>
      <point x="45" y="261" type="line"/>
      <point x="45" y="263" type="line"/>
      <point x="247" y="525" type="line"/>
      <point x="252" y="525" type="line"/>
      <point x="49" y="262" type="line"/>
    </contour>
  </outline>
</glyph>
<glyph name="degree" format="1">
  <advance width="436"/>
  <unicode hex="00B0"/>
  <outline>
    <contour>
      <point x="368" y="558" type="curve" smooth="yes"/>
      <point x="368" y="470"/>
      <point x="305" y="403"/>
      <point x="218" y="403" type="curve" smooth="yes"/>
      <point x="131" y="403"/>
      <point x="68" y="470"/>
      <point x="68" y="558" type="curve" smooth="yes"/>
      <point x="68" y="644"/>
      <point x="131" y="711"/>
      <point x="218" y="711" type="curve" smooth="yes"/>
      <point x="305" y="711"/>
      <point x="368" y="644"/>
    </contour>
    <contour>
      <point x="364" y="558" type="curve" smooth="yes"/>
      <point x="364" y="642"/>
      <point x="303" y="707"/>
      <point x="218" y="707" type="curve" smooth="yes"/>
      <point x="133" y="707"/>
      <point x="72" y="642"/>
      <point x="72" y="558" type="curve" smooth="yes"/>
      <point x="72" y="472"/>
      <point x="133" y="407"/>
      <point x="218" y="407" type="curve" smooth="yes"/>
      <point x="303" y="407"/>
      <point x="364" y="472"/>
    </contour>
  </outline>
</glyph>
<glyph name="acute" format="1">
  <advance width="500"/>
  <unicode hex="00B4"/>
  <outline>
    <contour>
      <point x="315" y="725" type="line"/>
      <point x="212" y="595" type="line"/>
      <point x="207" y="595" type="line"/>
      <point x="310" y="725" type="line"/>
    </contour>
  </outline>
</glyph>
<glyph name="paragraph" format="1">
  <advance width="617"/>
  <unicode hex="00B6"/>
  <outline>
    <contour>
      <point x="510" y="-185" type="line"/>
      <point x="506" y="-185" type="line"/>
      <point x="506" y="696" type="line"/>
      <point x="362" y="696" type="line"/>
      <point x="362" y="-185" type="line"/>
      <point x="358" y="-185" type="line"/>
      <point x="358" y="263" type="line"/>
      <point x="295" y="263" type="line" smooth="yes"/>
      <point x="130" y="263"/>
      <point x="50" y="353"/>
      <point x="50" y="486" type="curve" smooth="yes"/>
      <point x="50" y="626"/>
      <point x="149" y="700"/>
      <point x="296" y="700" type="curve" smooth="yes"/>
      <point x="510" y="700" type="line"/>
    </contour>
    <contour>
      <point x="358" y="267" type="line"/>
      <point x="358" y="696" type="line"/>
      <point x="296" y="696" type="line" smooth="yes"/>
      <point x="152" y="696"/>
      <point x="55" y="624"/>
      <point x="55" y="486" type="curve" smooth="yes"/>
      <point x="55" y="354"/>
      <point x="133" y="267"/>
      <point x="295" y="267" type="curve" smooth="yes"/>
    </contour>
  </outline>
</glyph>
<glyph name="periodcentered" format="1">
  <advance width="174"/>
  <unicode hex="00B7"/>
  <outline>
    <contour>
      <point x="89" y="337" type="line"/>
      <point x="85" y="337" type="line"/>
      <point x="85" y="397" type="line"/>
      <point x="89" y="397" type="line"/>
    </contour>
  </outline>
</glyph>
<glyph name="cedilla" format="1">
  <advance width="500"/>
  <unicode hex="00B8"/>
  <outline>
    <contour>
      <point x="340" y="-92" type="curve" smooth="yes"/>
      <point x="340" y="-131"/>
      <point x="306" y="-155"/>
      <point x="254" y="-155" type="curve" smooth="yes"/>
      <point x="221" y="-155"/>
      <point x="190" y="-146"/>
      <point x="164" y="-126" type="curve"/>
      <point x="167" y="-123" type="line"/>
      <point x="193" y="-143"/>
      <point x="221" y="-151"/>
      <point x="254" y="-151" type="curve" smooth="yes"/>
      <point x="304" y="-151"/>
      <point x="336" y="-129"/>
      <point x="336" y="-92" type="curve" smooth="yes"/>
      <point x="336" y="-62"/>
      <point x="313" y="-47"/>
      <point x="285" y="-47" type="curve" smooth="yes"/>
      <point x="262" y="-47"/>
      <point x="241" y="-57"/>
      <point x="227" y="-71" type="curve"/>
      <point x="224" y="-70" type="line"/>
      <point x="259" y="0" type="line"/>
      <point x="263" y="0" type="line"/>
      <point x="232" y="-62" type="line"/>
      <point x="245" y="-51"/>
      <point x="264" y="-43"/>
      <point x="285" y="-43" type="curve" smooth="yes"/>
      <point x="315" y="-43"/>
      <point x="340" y="-60"/>
    </contour>
  </outline>
</glyph>
<glyph name="ordmasculine" format="1">
  <advance width="484"/>
  <unicode hex="00BA"/>
  <outline>
    <contour>
      <point x="421" y="492" type="curve" smooth="yes"/>
      <point x="421" y="352"/>
      <point x="341" y="273"/>
      <point x="242" y="273" type="curve" smooth="yes"/>
      <point x="143" y="273"/>
      <point x="63" y="352"/>
      <point x="63" y="492" type="curve" smooth="yes"/>
      <point x="63" y="632"/>
      <point x="143" y="711"/>
      <point x="242" y="711" type="curve" smooth="yes"/>
      <point x="341" y="711"/>
      <point x="421" y="632"/>
    </contour>
    <contour>
      <point x="417" y="492" type="curve" smooth="yes"/>
      <point x="417" y="630"/>
      <point x="340" y="707"/>
      <point x="242" y="707" type="curve" smooth="yes"/>
      <point x="145" y="707"/>
      <point x="67" y="630"/>
      <point x="67" y="492" type="curve" smooth="yes"/>
      <point x="67" y="354"/>
      <point x="145" y="277"/>
      <point x="242" y="277" type="curve" smooth="yes"/>
      <point x="340" y="277"/>
      <point x="417" y="354"/>
    </contour>
  </outline>
</glyph>
<glyph name="guillemotright" format="1">
  <advance width="530"/>
  <unicode hex="00BB"/>
  <outline>
    <contour>
      <point x="485" y="261" type="line"/>
      <point x="283" y="0" type="line"/>
      <point x="278" y="0" type="line"/>
      <point x="481" y="262" type="line"/>
      <point x="278" y="525" type="line"/>
      <point x="283" y="525" type="line"/>
      <point x="485" y="263" type="line"/>
    </contour>
    <contour>
      <point x="272" y="261" type="line"/>
      <point x="70" y="0" type="line"/>
      <point x="65" y="0" type="line"/>
      <point x="268" y="262" type="line"/>
      <point x="65" y="525" type="line"/>
      <point x="70" y="525" type="line"/>
      <point x="272" y="263" type="line"/>
    </contour>
  </outline>
</glyph>
<glyph name="questiondown" format="1">
  <advance width="552"/>
  <unicode hex="00BF"/>
  <outline>
    <contour>
      <point x="307" y="640" type="line"/>
      <point x="303" y="640" type="line"/>
      <point x="303" y="700" type="line"/>
      <point x="307" y="700" type="line"/>
    </contour>
    <contour>
      <point x="485" y="58" type="line"/>
      <point x="435" y="21"/>
      <point x="372" y="-11"/>
      <point x="279" y="-11" type="curve" smooth="yes"/>
      <point x="168" y="-11"/>
      <point x="94" y="52"/>
      <point x="94" y="145" type="curve" smooth="yes"/>
      <point x="94" y="226"/>
      <point x="126" y="258"/>
      <point x="213" y="336" type="curve" smooth="yes"/>
      <point x="284" y="401"/>
      <point x="303" y="427"/>
      <point x="303" y="570" type="curve"/>
      <point x="307" y="570" type="line"/>
      <point x="307" y="427"/>
      <point x="287" y="398"/>
      <point x="216" y="334" type="curve" smooth="yes"/>
      <point x="129" y="255"/>
      <point x="98" y="225"/>
      <point x="98" y="145" type="curve" smooth="yes"/>
      <point x="98" y="54"/>
      <point x="170" y="-7"/>
      <point x="279" y="-7" type="curve" smooth="yes"/>
      <point x="370" y="-7"/>
      <point x="431" y="23"/>
      <point x="483" y="61" type="curve"/>
    </contour>
  </outline>
</glyph>
<glyph name="Aring" format="1">
  <advance width="646"/>
  <unicode hex="00C5"/>
  <outline>
    <contour>
      <point x="572" y="0" type="line"/>
      <point x="568" y="0" type="line"/>
      <point x="493" y="212" type="line"/>
      <point x="153" y="212" type="line"/>
      <point x="78" y="0" type="line"/>
      <point x="74" y="0" type="line"/>
      <point x="318" y="696" type="line"/>
      <point x="281" y="698"/>
      <point x="251" y="728"/>
      <point x="251" y="767" type="curve" smooth="yes"/>
      <point x="251" y="807"/>
      <point x="283" y="839"/>
      <point x="323" y="839" type="curve" smooth="yes"/>
      <point x="363" y="839"/>
      <point x="395" y="807"/>
      <point x="395" y="767" type="curve" smooth="yes"/>
      <point x="395" y="729"/>
      <point x="365" y="698"/>
      <point x="328" y="696" type="curve"/>
    </contour>
    <contour>
      <point x="391" y="767" type="curve" smooth="yes"/>
      <point x="391" y="805"/>
      <point x="361" y="835"/>
      <point x="323" y="835" type="curve" smooth="yes"/>
      <point x="285" y="835"/>
      <point x="255" y="805"/>
      <point x="255" y="767" type="curve" smooth="yes"/>
      <point x="255" y="729"/>
      <point x="285" y="700"/>
      <point x="323" y="700" type="curve" smooth="yes"/>
      <point x="361" y="700"/>
      <point x="391" y="729"/>
    </contour>
    <contour>
      <point x="492" y="216" type="line"/>
      <point x="323" y="698" type="line"/>
      <point x="154" y="216" type="line"/>
    </contour>
  </outline>
</glyph>
<glyph name="AE" format="1">
  <advance width="920"/>
  <unicode hex="00C6"/>
  <outline>
    <contour>
      <point x="883" y="0" type="line"/>
      <point x="508" y="0" type="line"/>
      <point x="508" y="212" type="line"/>
      <point x="179" y="212" type="line"/>
      <point x="34" y="0" type="line"/>
      <point x="29" y="0" type="line"/>
      <point x="508" y="700" type="line"/>
      <point x="868" y="700" type="line"/>
      <point x="868" y="696" type="line"/>
      <point x="512" y="696" type="line"/>
      <point x="512" y="375" type="line"/>
      <point x="738" y="375" type="line"/>
      <point x="738" y="371" type="line"/>
      <point x="512" y="371" type="line"/>
      <point x="512" y="4" type="line"/>
      <point x="883" y="4" type="line"/>
    </contour>
    <contour>
      <point x="508" y="216" type="line"/>
      <point x="508" y="693" type="line"/>
      <point x="182" y="216" type="line"/>
    </contour>
  </outline>
</glyph>
<glyph name="Ccedilla" format="1">
  <advance width="608"/>
  <unicode hex="00C7"/>
  <outline>
    <contour>
      <point x="539" y="58" type="line"/>
      <point x="490" y="12"/>
      <point x="425" y="-11"/>
      <point x="359" y="-11" type="curve" smooth="yes"/>
      <point x="353" y="-11"/>
      <point x="347" y="-11"/>
      <point x="342" y="-10" type="curve"/>
      <point x="316" y="-62" type="line"/>
      <point x="329" y="-51"/>
      <point x="348" y="-43"/>
      <point x="369" y="-43" type="curve" smooth="yes"/>
      <point x="399" y="-43"/>
      <point x="424" y="-60"/>
      <point x="424" y="-92" type="curve" smooth="yes"/>
      <point x="424" y="-131"/>
      <point x="390" y="-155"/>
      <point x="338" y="-155" type="curve" smooth="yes"/>
      <point x="305" y="-155"/>
      <point x="274" y="-146"/>
      <point x="248" y="-126" type="curve"/>
      <point x="251" y="-123" type="line"/>
      <point x="277" y="-143"/>
      <point x="305" y="-151"/>
      <point x="338" y="-151" type="curve" smooth="yes"/>
      <point x="388" y="-151"/>
      <point x="420" y="-129"/>
      <point x="420" y="-92" type="curve" smooth="yes"/>
      <point x="420" y="-62"/>
      <point x="397" y="-47"/>
      <point x="369" y="-47" type="curve" smooth="yes"/>
      <point x="346" y="-47"/>
      <point x="325" y="-57"/>
      <point x="311" y="-71" type="curve"/>
      <point x="308" y="-70" type="line"/>
      <point x="338" y="-10" type="line"/>
      <point x="185" y="1"/>
      <point x="78" y="137"/>
      <point x="78" y="350" type="curve" smooth="yes"/>
      <point x="78" y="573"/>
      <point x="195" y="711"/>
      <point x="359" y="711" type="curve" smooth="yes"/>
      <point x="437" y="711"/>
      <point x="487" y="689"/>
      <point x="527" y="653" type="curve"/>
      <point x="524" y="650" type="line"/>
      <point x="484" y="686"/>
      <point x="436" y="707"/>
      <point x="359" y="707" type="curve" smooth="yes"/>
      <point x="198" y="707"/>
      <point x="82" y="570"/>
      <point x="82" y="350" type="curve" smooth="yes"/>
      <point x="82" y="130"/>
      <point x="198" y="-7"/>
      <point x="359" y="-7" type="curve" smooth="yes"/>
      <point x="424" y="-7"/>
      <point x="489" y="16"/>
      <point x="536" y="61" type="curve"/>
    </contour>
  </outline>
</glyph>
<glyph name="Eth" format="1">
  <advance width="674"/>
  <unicode hex="00D0"/>
  <outline>
    <contour>
      <point x="596" y="350" type="curve" smooth="yes"/>
      <point x="596" y="105"/>
      <point x="486" y="0"/>
      <point x="289" y="0" type="curve" smooth="yes"/>
      <point x="112" y="0" type="line"/>
      <point x="112" y="362" type="line"/>
      <point x="40" y="362" type="line"/>
      <point x="40" y="366" type="line"/>
      <point x="112" y="366" type="line"/>
      <point x="112" y="700" type="line"/>
      <point x="289" y="700" type="line" smooth="yes"/>
      <point x="487" y="700"/>
      <point x="596" y="592"/>
    </contour>
    <contour>
      <point x="592" y="350" type="curve" smooth="yes"/>
      <point x="592" y="589"/>
      <point x="485" y="696"/>
      <point x="289" y="696" type="curve" smooth="yes"/>
      <point x="116" y="696" type="line"/>
      <point x="116" y="366" type="line"/>
      <point x="280" y="366" type="line"/>
      <point x="280" y="362" type="line"/>
      <point x="116" y="362" type="line"/>
      <point x="116" y="4" type="line"/>
      <point x="289" y="4" type="line" smooth="yes"/>
      <point x="484" y="4"/>
      <point x="592" y="108"/>
    </contour>
  </outline>
</glyph>
<glyph name="Oslash" format="1">
  <advance width="728"/>
  <unicode hex="00D8"/>
  <outline>
    <contour>
      <point x="650" y="350" type="curve" smooth="yes"/>
      <point x="650" y="120"/>
      <point x="527" y="-11"/>
      <point x="364" y="-11" type="curve" smooth="yes"/>
      <point x="306" y="-11"/>
      <point x="253" y="6"/>
      <point x="209" y="37" type="curve"/>
      <point x="165" y="-50" type="line"/>
      <point x="161" y="-50" type="line"/>
      <point x="206" y="39" type="line"/>
      <point x="128" y="97"/>
      <point x="78" y="204"/>
      <point x="78" y="350" type="curve" smooth="yes"/>
      <point x="78" y="580"/>
      <point x="201" y="711"/>
      <point x="364" y="711" type="curve" smooth="yes"/>
      <point x="422" y="711"/>
      <point x="475" y="694"/>
      <point x="519" y="663" type="curve"/>
      <point x="563" y="750" type="line"/>
      <point x="567" y="750" type="line"/>
      <point x="522" y="661" type="line"/>
      <point x="600" y="603"/>
      <point x="650" y="496"/>
    </contour>
    <contour>
      <point x="517" y="659" type="line"/>
      <point x="474" y="691"/>
      <point x="422" y="707"/>
      <point x="364" y="707" type="curve" smooth="yes"/>
      <point x="203" y="707"/>
      <point x="82" y="577"/>
      <point x="82" y="350" type="curve" smooth="yes"/>
      <point x="82" y="206"/>
      <point x="131" y="101"/>
      <point x="208" y="43" type="curve"/>
    </contour>
    <contour>
      <point x="646" y="350" type="curve" smooth="yes"/>
      <point x="646" y="494"/>
      <point x="597" y="599"/>
      <point x="520" y="657" type="curve"/>
      <point x="211" y="41" type="line"/>
      <point x="254" y="9"/>
      <point x="306" y="-7"/>
      <point x="364" y="-7" type="curve" smooth="yes"/>
      <point x="525" y="-7"/>
      <point x="646" y="123"/>
    </contour>
  </outline>
</glyph>
<glyph name="Thorn" format="1">
  <advance width="562"/>
  <unicode hex="00DE"/>
  <outline>
    <contour>
      <point x="512" y="369" type="curve" smooth="yes"/>
      <point x="512" y="235"/>
      <point x="429" y="171"/>
      <point x="272" y="171" type="curve" smooth="yes"/>
      <point x="106" y="171" type="line"/>
      <point x="106" y="0" type="line"/>
      <point x="102" y="0" type="line"/>
      <point x="102" y="700" type="line"/>
      <point x="106" y="700" type="line"/>
      <point x="106" y="558" type="line"/>
      <point x="286" y="558" type="line" smooth="yes"/>
      <point x="426" y="558"/>
      <point x="512" y="510"/>
    </contour>
    <contour>
      <point x="507" y="369" type="curve" smooth="yes"/>
      <point x="507" y="507"/>
      <point x="423" y="554"/>
      <point x="286" y="554" type="curve" smooth="yes"/>
      <point x="106" y="554" type="line"/>
      <point x="106" y="175" type="line"/>
      <point x="272" y="175" type="line" smooth="yes"/>
      <point x="426" y="175"/>
      <point x="507" y="237"/>
    </contour>
  </outline>
</glyph>
<glyph name="germandbls" format="1">
  <advance width="566"/>
  <unicode hex="00DF"/>
  <outline>
    <contour>
      <point x="506" y="216" type="curve" smooth="yes"/>
      <point x="506" y="64"/>
      <point x="403" y="0"/>
      <point x="254" y="0" type="curve" smooth="yes"/>
      <point x="244" y="0" type="line"/>
      <point x="244" y="4" type="line"/>
      <point x="254" y="4" type="line" smooth="yes"/>
      <point x="401" y="4"/>
      <point x="502" y="67"/>
      <point x="502" y="216" type="curve" smooth="yes"/>
      <point x="502" y="331"/>
      <point x="417" y="401"/>
      <point x="258" y="401" type="curve" smooth="yes"/>
      <point x="244" y="401" type="line"/>
      <point x="244" y="405" type="line"/>
      <point x="258" y="405" type="line" smooth="yes"/>
      <point x="389" y="405"/>
      <point x="444" y="470"/>
      <point x="444" y="566" type="curve" smooth="yes"/>
      <point x="444" y="648"/>
      <point x="385" y="715"/>
      <point x="266" y="715" type="curve" smooth="yes"/>
      <point x="158" y="715"/>
      <point x="94" y="644"/>
      <point x="94" y="520" type="curve" smooth="yes"/>
      <point x="94" y="-183" type="line"/>
      <point x="90" y="-185" type="line"/>
      <point x="90" y="520" type="line" smooth="yes"/>
      <point x="90" y="646"/>
      <point x="156" y="719"/>
      <point x="266" y="719" type="curve" smooth="yes"/>
      <point x="387" y="719"/>
      <point x="448" y="650"/>
      <point x="448" y="566" type="curve" smooth="yes"/>
      <point x="448" y="463"/>
      <point x="386" y="410"/>
      <point x="290" y="403" type="curve"/>
      <point x="418" y="396"/>
      <point x="506" y="336"/>
    </contour>
  </outline>
</glyph>
<glyph name="ae" format="1">
  <advance width="910"/>
  <unicode hex="00E6"/>
  <outline>
    <contour>
      <point x="842" y="268" type="curve" smooth="yes"/>
      <point x="842" y="266" type="line"/>
      <point x="438" y="266" type="line"/>
      <point x="438" y="88"/>
      <point x="528" y="-7"/>
      <point x="638" y="-7" type="curve" smooth="yes"/>
      <point x="716" y="-7"/>
      <point x="762" y="10"/>
      <point x="810" y="37" type="curve"/>
      <point x="812" y="33" type="line"/>
      <point x="764" y="6"/>
      <point x="716" y="-11"/>
      <point x="638" y="-11" type="curve" smooth="yes"/>
      <point x="560" y="-11"/>
      <point x="492" y="36"/>
      <point x="458" y="124" type="curve"/>
      <point x="410" y="43"/>
      <point x="336" y="-11"/>
      <point x="238" y="-11" type="curve" smooth="yes"/>
      <point x="147" y="-11"/>
      <point x="56" y="26"/>
      <point x="56" y="142" type="curve" smooth="yes"/>
      <point x="56" y="256"/>
      <point x="144" y="314"/>
      <point x="249" y="314" type="curve" smooth="yes"/>
      <point x="326" y="314"/>
      <point x="390" y="289"/>
      <point x="434" y="263" type="curve"/>
      <point x="434" y="361" type="line" smooth="yes"/>
      <point x="434" y="490"/>
      <point x="381" y="532"/>
      <point x="267" y="532" type="curve" smooth="yes"/>
      <point x="202" y="532"/>
      <point x="156" y="514"/>
      <point x="107" y="490" type="curve"/>
      <point x="105" y="494" type="line"/>
      <point x="152" y="517"/>
      <point x="200" y="536"/>
      <point x="267" y="536" type="curve" smooth="yes"/>
      <point x="383" y="536"/>
      <point x="438" y="493"/>
      <point x="438" y="362" type="curve" smooth="yes"/>
      <point x="438" y="362"/>
      <point x="438" y="322"/>
      <point x="438" y="321" type="curve"/>
      <point x="456" y="460"/>
      <point x="541" y="536"/>
      <point x="640" y="536" type="curve" smooth="yes"/>
      <point x="752" y="536"/>
      <point x="842" y="444"/>
    </contour>
    <contour>
      <point x="838" y="270" type="line"/>
      <point x="837" y="443"/>
      <point x="750" y="532"/>
      <point x="640" y="532" type="curve" smooth="yes"/>
      <point x="531" y="532"/>
      <point x="440" y="439"/>
      <point x="438" y="270" type="curve"/>
    </contour>
    <contour>
      <point x="456" y="128" type="curve"/>
      <point x="442" y="164"/>
      <point x="434" y="215"/>
      <point x="434" y="259" type="curve"/>
      <point x="387" y="286"/>
      <point x="324" y="310"/>
      <point x="249" y="310" type="curve" smooth="yes"/>
      <point x="146" y="310"/>
      <point x="60" y="253"/>
      <point x="60" y="142" type="curve" smooth="yes"/>
      <point x="60" y="29"/>
      <point x="150" y="-7"/>
      <point x="238" y="-7" type="curve" smooth="yes"/>
      <point x="334" y="-7"/>
      <point x="408" y="44"/>
    </contour>
  </outline>
</glyph>
<glyph name="ccedilla" format="1">
  <advance width="487"/>
  <unicode hex="00E7"/>
  <outline>
    <contour>
      <point x="424" y="44" type="line"/>
      <point x="388" y="10"/>
      <point x="333" y="-11"/>
      <point x="270" y="-11" type="curve" smooth="yes"/>
      <point x="267" y="-11"/>
      <point x="265" y="-11"/>
      <point x="262" y="-11" type="curve"/>
      <point x="236" y="-62" type="line"/>
      <point x="249" y="-51"/>
      <point x="268" y="-43"/>
      <point x="289" y="-43" type="curve" smooth="yes"/>
      <point x="319" y="-43"/>
      <point x="344" y="-60"/>
      <point x="344" y="-92" type="curve" smooth="yes"/>
      <point x="344" y="-131"/>
      <point x="310" y="-155"/>
      <point x="258" y="-155" type="curve" smooth="yes"/>
      <point x="225" y="-155"/>
      <point x="194" y="-146"/>
      <point x="168" y="-126" type="curve"/>
      <point x="171" y="-123" type="line"/>
      <point x="197" y="-143"/>
      <point x="225" y="-151"/>
      <point x="258" y="-151" type="curve" smooth="yes"/>
      <point x="308" y="-151"/>
      <point x="340" y="-129"/>
      <point x="340" y="-92" type="curve" smooth="yes"/>
      <point x="340" y="-62"/>
      <point x="317" y="-47"/>
      <point x="289" y="-47" type="curve" smooth="yes"/>
      <point x="266" y="-47"/>
      <point x="245" y="-57"/>
      <point x="231" y="-71" type="curve"/>
      <point x="228" y="-70" type="line"/>
      <point x="258" y="-11" type="line"/>
      <point x="156" y="-5"/>
      <point x="60" y="82"/>
      <point x="60" y="263" type="curve" smooth="yes"/>
      <point x="60" y="444"/>
      <point x="165" y="536"/>
      <point x="271" y="536" type="curve" smooth="yes"/>
      <point x="345" y="536"/>
      <point x="385" y="513"/>
      <point x="421" y="483" type="curve"/>
      <point x="419" y="480" type="line"/>
      <point x="383" y="510"/>
      <point x="343" y="532"/>
      <point x="271" y="532" type="curve" smooth="yes"/>
      <point x="167" y="532"/>
      <point x="64" y="442"/>
      <point x="64" y="263" type="curve" smooth="yes"/>
      <point x="64" y="79"/>
      <point x="166" y="-7"/>
      <point x="270" y="-7" type="curve" smooth="yes"/>
      <point x="332" y="-7"/>
      <point x="386" y="14"/>
      <point x="422" y="47" type="curve"/>
    </contour>
  </outline>
</glyph>
<glyph name="eth" format="1">
  <advance width="576"/>
  <unicode hex="00F0"/>
  <outline>
    <contour>
      <point x="516" y="304" type="curve" smooth="yes"/>
      <point x="516" y="103"/>
      <point x="447" y="-11"/>
      <point x="284" y="-11" type="curve" smooth="yes"/>
      <point x="149" y="-11"/>
      <point x="60" y="88"/>
      <point x="60" y="235" type="curve" smooth="yes"/>
      <point x="60" y="380"/>
      <point x="144" y="482"/>
      <point x="282" y="482" type="curve" smooth="yes"/>
      <point x="406" y="482"/>
      <point x="495" y="416"/>
      <point x="512" y="290" type="curve"/>
      <point x="512" y="293"/>
      <point x="512" y="301"/>
      <point x="512" y="304" type="curve" smooth="yes"/>
      <point x="512" y="460"/>
      <point x="452" y="584"/>
      <point x="350" y="652" type="curve"/>
      <point x="310" y="607" type="line"/>
      <point x="307" y="609" type="line"/>
      <point x="347" y="654" type="line"/>
      <point x="302" y="683"/>
      <point x="248" y="701"/>
      <point x="188" y="707" type="curve"/>
      <point x="188" y="711" type="line"/>
      <point x="249" y="705"/>
      <point x="303" y="687"/>
      <point x="349" y="657" type="curve"/>
      <point x="380" y="691" type="line"/>
      <point x="383" y="689" type="line"/>
      <point x="352" y="655" type="line"/>
      <point x="455" y="587"/>
      <point x="516" y="461"/>
    </contour>
    <contour>
      <point x="511" y="268" type="curve"/>
      <point x="501" y="404"/>
      <point x="413" y="478"/>
      <point x="282" y="478" type="curve" smooth="yes"/>
      <point x="146" y="478"/>
      <point x="64" y="378"/>
      <point x="64" y="235" type="curve" smooth="yes"/>
      <point x="64" y="90"/>
      <point x="151" y="-7"/>
      <point x="284" y="-7" type="curve" smooth="yes"/>
      <point x="434" y="-7"/>
      <point x="503" y="92"/>
    </contour>
  </outline>
</glyph>
<glyph name="oslash" format="1">
  <advance width="568"/>
  <unicode hex="00F8"/>
  <outline>
    <contour>
      <point x="508" y="263" type="curve" smooth="yes"/>
      <point x="508" y="87"/>
      <point x="408" y="-11"/>
      <point x="284" y="-11" type="curve" smooth="yes"/>
      <point x="238" y="-11"/>
      <point x="196" y="2"/>
      <point x="160" y="28" type="curve"/>
      <point x="119" y="-50" type="line"/>
      <point x="115" y="-50" type="line"/>
      <point x="157" y="30" type="line"/>
      <point x="99" y="74"/>
      <point x="60" y="154"/>
      <point x="60" y="263" type="curve" smooth="yes"/>
      <point x="60" y="438"/>
      <point x="160" y="536"/>
      <point x="284" y="536" type="curve" smooth="yes"/>
      <point x="330" y="536"/>
      <point x="371" y="523"/>
      <point x="407" y="497" type="curve"/>
      <point x="449" y="575" type="line"/>
      <point x="453" y="575" type="line"/>
      <point x="410" y="495" type="line"/>
      <point x="469" y="451"/>
      <point x="508" y="372"/>
    </contour>
    <contour>
      <point x="405" y="494" type="line"/>
      <point x="370" y="519"/>
      <point x="329" y="532"/>
      <point x="284" y="532" type="curve" smooth="yes"/>
      <point x="162" y="532"/>
      <point x="64" y="436"/>
      <point x="64" y="263" type="curve" smooth="yes"/>
      <point x="64" y="155"/>
      <point x="102" y="77"/>
      <point x="159" y="33" type="curve"/>
    </contour>
    <contour>
      <point x="504" y="263" type="curve" smooth="yes"/>
      <point x="504" y="370"/>
      <point x="466" y="448"/>
      <point x="408" y="492" type="curve"/>
      <point x="162" y="31" type="line"/>
      <point x="197" y="6"/>
      <point x="239" y="-7"/>
      <point x="284" y="-7" type="curve" smooth="yes"/>
      <point x="406" y="-7"/>
      <point x="504" y="89"/>
    </contour>
  </outline>
</glyph>
<glyph name="dotlessi" format="1">
  <advance width="194"/>
  <unicode hex="0131"/>
  <outline>
    <contour>
      <point x="99" y="0" type="line"/>
      <point x="95" y="0" type="line"/>
      <point x="95" y="525" type="line"/>
      <point x="99" y="525" type="line"/>
    </contour>
  </outline>
</glyph>
<glyph name="Lslash" format="1">
  <advance width="501"/>
  <unicode hex="0141"/>
  <outline>
    <contour>
      <point x="461" y="0" type="line"/>
      <point x="112" y="0" type="line"/>
      <point x="112" y="284" type="line"/>
      <point x="51" y="232" type="line"/>
      <point x="51" y="237" type="line"/>
      <point x="112" y="289" type="line"/>
      <point x="112" y="700" type="line"/>
      <point x="116" y="700" type="line"/>
      <point x="116" y="292" type="line"/>
      <point x="286" y="436" type="line"/>
      <point x="286" y="431" type="line"/>
      <point x="116" y="287" type="line"/>
      <point x="116" y="4" type="line"/>
      <point x="461" y="4" type="line"/>
    </contour>
  </outline>
</glyph>
<glyph name="lslash" format="1">
  <advance width="214"/>
  <unicode hex="0142"/>
  <outline>
    <contour>
      <point x="163" y="353" type="line"/>
      <point x="109" y="307" type="line"/>
      <point x="109" y="0" type="line"/>
      <point x="105" y="0" type="line"/>
      <point x="105" y="304" type="line"/>
      <point x="51" y="258" type="line"/>
      <point x="51" y="263" type="line"/>
      <point x="105" y="309" type="line"/>
      <point x="105" y="727" type="line"/>
      <point x="109" y="729" type="line"/>
      <point x="109" y="312" type="line"/>
      <point x="163" y="358" type="line"/>
    </contour>
  </outline>
</glyph>
<glyph name="OE" format="1">
  <advance width="1058"/>
  <unicode hex="0152"/>
  <outline>
    <contour>
      <point x="1021" y="0" type="line"/>
      <point x="646" y="0" type="line"/>
      <point x="646" y="280" type="line"/>
      <point x="624" y="94"/>
      <point x="510" y="-11"/>
      <point x="364" y="-11" type="curve" smooth="yes"/>
      <point x="201" y="-11"/>
      <point x="78" y="120"/>
      <point x="78" y="350" type="curve" smooth="yes"/>
      <point x="78" y="580"/>
      <point x="201" y="711"/>
      <point x="364" y="711" type="curve" smooth="yes"/>
      <point x="510" y="711"/>
      <point x="624" y="606"/>
      <point x="646" y="419" type="curve"/>
      <point x="646" y="700" type="line"/>
      <point x="1006" y="700" type="line"/>
      <point x="1006" y="696" type="line"/>
      <point x="650" y="696" type="line"/>
      <point x="650" y="375" type="line"/>
      <point x="876" y="375" type="line"/>
      <point x="876" y="371" type="line"/>
      <point x="650" y="371" type="line"/>
      <point x="650" y="4" type="line"/>
      <point x="1021" y="4" type="line"/>
    </contour>
    <contour>
      <point x="646" y="350" type="curve" smooth="yes"/>
      <point x="646" y="577"/>
      <point x="525" y="707"/>
      <point x="364" y="707" type="curve" smooth="yes"/>
      <point x="203" y="707"/>
      <point x="82" y="577"/>
      <point x="82" y="350" type="curve" smooth="yes"/>
      <point x="82" y="123"/>
      <point x="203" y="-7"/>
      <point x="364" y="-7" type="curve" smooth="yes"/>
      <point x="525" y="-7"/>
      <point x="646" y="123"/>
    </contour>
  </outline>
</glyph>
<glyph name="oe" format="1">
  <advance width="980"/>
  <unicode hex="0153"/>
  <outline>
    <contour>
      <point x="912" y="268" type="curve" smooth="yes"/>
      <point x="912" y="266" type="line"/>
      <point x="508" y="266" type="line"/>
      <point x="508" y="89"/>
      <point x="597" y="-7"/>
      <point x="708" y="-7" type="curve" smooth="yes"/>
      <point x="786" y="-7"/>
      <point x="832" y="10"/>
      <point x="880" y="37" type="curve"/>
      <point x="882" y="33" type="line"/>
      <point x="834" y="6"/>
      <point x="786" y="-11"/>
      <point x="708" y="-11" type="curve" smooth="yes"/>
      <point x="605" y="-11"/>
      <point x="519" y="72"/>
      <point x="506" y="222" type="curve"/>
      <point x="492" y="71"/>
      <point x="398" y="-11"/>
      <point x="284" y="-11" type="curve" smooth="yes"/>
      <point x="160" y="-11"/>
      <point x="60" y="87"/>
      <point x="60" y="263" type="curve" smooth="yes"/>
      <point x="60" y="438"/>
      <point x="160" y="536"/>
      <point x="284" y="536" type="curve" smooth="yes"/>
      <point x="398" y="536"/>
      <point x="492" y="453"/>
      <point x="506" y="304" type="curve"/>
      <point x="519" y="453"/>
      <point x="607" y="536"/>
      <point x="710" y="536" type="curve" smooth="yes"/>
      <point x="822" y="536"/>
      <point x="912" y="444"/>
    </contour>
    <contour>
      <point x="908" y="270" type="line"/>
      <point x="907" y="443"/>
      <point x="820" y="532"/>
      <point x="710" y="532" type="curve" smooth="yes"/>
      <point x="601" y="532"/>
      <point x="510" y="439"/>
      <point x="508" y="270" type="curve"/>
    </contour>
    <contour>
      <point x="504" y="263" type="curve" smooth="yes"/>
      <point x="504" y="436"/>
      <point x="406" y="532"/>
      <point x="284" y="532" type="curve" smooth="yes"/>
      <point x="162" y="532"/>
      <point x="64" y="436"/>
      <point x="64" y="263" type="curve" smooth="yes"/>
      <point x="64" y="89"/>
      <point x="162" y="-7"/>
      <point x="284" y="-7" type="curve" smooth="yes"/>
      <point x="406" y="-7"/>
      <point x="504" y="89"/>
    </contour>
  </outline>
</glyph>
<glyph name="florin" format="1">
  <advance width="340"/>
  <unicode hex="0192"/>
  <outline>
    <contour>
      <point x="293" y="695" type="line"/>
      <point x="280" y="702"/>
      <point x="260" y="707"/>
      <point x="229" y="707" type="curve" smooth="yes"/>
      <point x="181" y="707"/>
      <point x="137" y="681"/>
      <point x="137" y="596" type="curve" smooth="yes"/>
      <point x="137" y="525" type="line"/>
      <point x="282" y="525" type="line"/>
      <point x="282" y="521" type="line"/>
      <point x="137" y="521" type="line"/>
      <point x="137" y="-183" type="line"/>
      <point x="133" y="-185" type="line"/>
      <point x="133" y="521" type="line"/>
      <point x="48" y="521" type="line"/>
      <point x="48" y="525" type="line"/>
      <point x="133" y="525" type="line"/>
      <point x="133" y="596" type="line" smooth="yes"/>
      <point x="133" y="683"/>
      <point x="178" y="711"/>
      <point x="229" y="711" type="curve" smooth="yes"/>
      <point x="262" y="711"/>
      <point x="283" y="704"/>
      <point x="294" y="699" type="curve"/>
    </contour>
  </outline>
</glyph>
<glyph name="circumflex" format="1">
  <advance width="500"/>
  <unicode hex="02C6"/>
  <outline>
    <contour>
      <point x="391" y="595" type="line"/>
      <point x="386" y="595" type="line"/>
      <point x="250" y="721" type="line"/>
      <point x="114" y="595" type="line"/>
      <point x="109" y="595" type="line"/>
      <point x="248" y="725" type="line"/>
      <point x="252" y="725" type="line"/>
    </contour>
  </outline>
</glyph>
<glyph name="caron" format="1">
  <advance width="500"/>
  <unicode hex="02C7"/>
  <outline>
    <contour>
      <point x="391" y="725" type="line"/>
      <point x="252" y="595" type="line"/>
      <point x="248" y="595" type="line"/>
      <point x="109" y="725" type="line"/>
      <point x="114" y="725" type="line"/>
      <point x="250" y="599" type="line"/>
      <point x="386" y="725" type="line"/>
    </contour>
  </outline>
</glyph>
<glyph name="breve" format="1">
  <advance width="500"/>
  <unicode hex="02D8"/>
  <outline>
    <contour>
      <point x="390" y="725" type="line"/>
      <point x="380" y="641"/>
      <point x="328" y="593"/>
      <point x="250" y="593" type="curve" smooth="yes"/>
      <point x="172" y="593"/>
      <point x="120" y="641"/>
      <point x="110" y="725" type="curve"/>
      <point x="114" y="725" type="line"/>
      <point x="124" y="643"/>
      <point x="174" y="597"/>
      <point x="250" y="597" type="curve" smooth="yes"/>
      <point x="326" y="597"/>
      <point x="376" y="643"/>
      <point x="386" y="725" type="curve"/>
    </contour>
  </outline>
</glyph>
<glyph name="dotaccent" format="1">
  <advance width="500"/>
  <unicode hex="02D9"/>
  <outline>
    <contour>
      <point x="252" y="603" type="line"/>
      <point x="248" y="603" type="line"/>
      <point x="248" y="673" type="line"/>
      <point x="252" y="673" type="line"/>
    </contour>
  </outline>
</glyph>
<glyph name="ring" format="1">
  <advance width="500"/>
  <unicode hex="02DA"/>
  <outline>
    <contour>
      <point x="322" y="666" type="curve" smooth="yes"/>
      <point x="322" y="626"/>
      <point x="290" y="595"/>
      <point x="250" y="595" type="curve" smooth="yes"/>
      <point x="210" y="595"/>
      <point x="178" y="626"/>
      <point x="178" y="666" type="curve" smooth="yes"/>
      <point x="178" y="706"/>
      <point x="210" y="738"/>
      <point x="250" y="738" type="curve" smooth="yes"/>
      <point x="290" y="738"/>
      <point x="322" y="706"/>
    </contour>
    <contour>
      <point x="318" y="666" type="curve" smooth="yes"/>
      <point x="318" y="704"/>
      <point x="288" y="734"/>
      <point x="250" y="734" type="curve" smooth="yes"/>
      <point x="212" y="734"/>
      <point x="182" y="704"/>
      <point x="182" y="666" type="curve" smooth="yes"/>
      <point x="182" y="628"/>
      <point x="212" y="599"/>
      <point x="250" y="599" type="curve" smooth="yes"/>
      <point x="288" y="599"/>
      <point x="318" y="628"/>
    </contour>
  </outline>
</glyph>
<glyph name="ogonek" format="1">
  <advance width="500"/>
  <unicode hex="02DB"/>
  <outline>
    <contour>
      <point x="359" y="-162" type="line"/>
      <point x="322" y="-182"/>
      <point x="284" y="-193"/>
      <point x="247" y="-193" type="curve" smooth="yes"/>
      <point x="192" y="-193"/>
      <point x="160" y="-162"/>
      <point x="160" y="-110" type="curve" smooth="yes"/>
      <point x="160" y="-65"/>
      <point x="194" y="-32"/>
      <point x="243" y="0" type="curve"/>
      <point x="250" y="0" type="line"/>
      <point x="198" y="-33"/>
      <point x="164" y="-67"/>
      <point x="164" y="-110" type="curve" smooth="yes"/>
      <point x="164" y="-160"/>
      <point x="194" y="-189"/>
      <point x="247" y="-189" type="curve" smooth="yes"/>
      <point x="284" y="-189"/>
      <point x="320" y="-179"/>
      <point x="357" y="-159" type="curve"/>
    </contour>
  </outline>
</glyph>
<glyph name="tilde" format="1">
  <advance width="500"/>
  <unicode hex="02DC"/>
  <outline>
    <contour>
      <point x="399" y="667" type="line"/>
      <point x="392" y="620"/>
      <point x="365" y="595"/>
      <point x="325" y="595" type="curve" smooth="yes"/>
      <point x="295" y="595"/>
      <point x="273" y="614"/>
      <point x="250" y="630" type="curve" smooth="yes"/>
      <point x="227" y="646"/>
      <point x="205" y="665"/>
      <point x="175" y="665" type="curve" smooth="yes"/>
      <point x="137" y="665"/>
      <point x="112" y="642"/>
      <point x="105" y="597" type="curve"/>
      <point x="101" y="597" type="line"/>
      <point x="108" y="644"/>
      <point x="135" y="669"/>
      <point x="175" y="669" type="curve" smooth="yes"/>
      <point x="205" y="669"/>
      <point x="228" y="650"/>
      <point x="251" y="634" type="curve" smooth="yes"/>
      <point x="274" y="618"/>
      <point x="295" y="599"/>
      <point x="325" y="599" type="curve" smooth="yes"/>
      <point x="363" y="599"/>
      <point x="388" y="622"/>
      <point x="395" y="667" type="curve"/>
    </contour>
  </outline>
</glyph>
<glyph name="hungarumlaut" format="1">
  <advance width="500"/>
  <unicode hex="02DD"/>
  <outline>
    <contour>
      <point x="390" y="725" type="line"/>
      <point x="287" y="595" type="line"/>
      <point x="282" y="595" type="line"/>
      <point x="385" y="725" type="line"/>
    </contour>
    <contour>
      <point x="230" y="725" type="line"/>
      <point x="127" y="595" type="line"/>
      <point x="122" y="595" type="line"/>
      <point x="225" y="725" type="line"/>
    </contour>
  </outline>
</glyph>
<glyph name="endash" format="1">
  <advance width="410"/>
  <unicode hex="2013"/>
  <outline>
    <contour>
      <point x="358" y="361" type="line"/>
      <point x="52" y="361" type="line"/>
      <point x="52" y="365" type="line"/>
      <point x="358" y="365" type="line"/>
    </contour>
  </outline>
</glyph>
<glyph name="emdash" format="1">
  <advance width="560"/>
  <unicode hex="2014"/>
  <outline>
    <contour>
      <point x="508" y="361" type="line"/>
      <point x="52" y="361" type="line"/>
      <point x="52" y="365" type="line"/>
      <point x="508" y="365" type="line"/>
    </contour>
  </outline>
</glyph>
<glyph name="quoteleft" format="1">
  <advance width="174"/>
  <unicode hex="2018"/>
  <unicode hex="02BB"/>
  <outline>
    <contour>
      <point x="100" y="700" type="line"/>
      <point x="79" y="550" type="line"/>
      <point x="75" y="550" type="line"/>
      <point x="96" y="700" type="line"/>
    </contour>
  </outline>
</glyph>
<glyph name="quoteright" format="1">
  <advance width="174"/>
  <unicode hex="2019"/>
  <unicode hex="02BC"/>
  <outline>
    <contour>
      <point x="100" y="700" type="line"/>
      <point x="79" y="550" type="line"/>
      <point x="75" y="550" type="line"/>
      <point x="96" y="700" type="line"/>
    </contour>
  </outline>
</glyph>
<glyph name="quotesinglbase" format="1">
  <advance width="174"/>
  <unicode hex="201A"/>
  <outline>
    <contour>
      <point x="92" y="60" type="line"/>
      <point x="71" y="-90" type="line"/>
      <point x="67" y="-90" type="line"/>
      <point x="88" y="60" type="line"/>
    </contour>
  </outline>
</glyph>
<glyph name="quotedblright" format="1">
  <advance width="323"/>
  <unicode hex="201D"/>
  <outline>
    <contour>
      <point x="249" y="700" type="line"/>
      <point x="228" y="550" type="line"/>
      <point x="224" y="550" type="line"/>
      <point x="245" y="700" type="line"/>
    </contour>
    <contour>
      <point x="100" y="700" type="line"/>
      <point x="79" y="550" type="line"/>
      <point x="75" y="550" type="line"/>
      <point x="96" y="700" type="line"/>
    </contour>
  </outline>
</glyph>
<glyph name="quotedblbase" format="1">
  <advance width="323"/>
  <unicode hex="201E"/>
  <outline>
    <contour>
      <point x="241" y="60" type="line"/>
      <point x="220" y="-90" type="line"/>
      <point x="216" y="-90" type="line"/>
      <point x="237" y="60" type="line"/>
    </contour>
    <contour>
      <point x="92" y="60" type="line"/>
      <point x="71" y="-90" type="line"/>
      <point x="67" y="-90" type="line"/>
      <point x="88" y="60" type="line"/>
    </contour>
  </outline>
</glyph>
<glyph name="dagger" format="1">
  <advance width="494"/>
  <unicode hex="2020"/>
  <outline>
    <contour>
      <point x="449" y="429" type="line"/>
      <point x="249" y="429" type="line"/>
      <point x="249" y="-100" type="line"/>
      <point x="245" y="-100" type="line"/>
      <point x="245" y="429" type="line"/>
      <point x="45" y="429" type="line"/>
      <point x="45" y="433" type="line"/>
      <point x="245" y="433" type="line"/>
      <point x="245" y="700" type="line"/>
      <point x="249" y="700" type="line"/>
      <point x="249" y="433" type="line"/>
      <point x="449" y="433" type="line"/>
    </contour>
  </outline>
</glyph>
<glyph name="daggerdbl" format="1">
  <advance width="494"/>
  <unicode hex="2021"/>
  <outline>
    <contour>
      <point x="449" y="166" type="line"/>
      <point x="249" y="166" type="line"/>
      <point x="249" y="-100" type="line"/>
      <point x="245" y="-100" type="line"/>
      <point x="245" y="166" type="line"/>
      <point x="45" y="166" type="line"/>
      <point x="45" y="170" type="line"/>
      <point x="245" y="170" type="line"/>
      <point x="245" y="429" type="line"/>
      <point x="45" y="429" type="line"/>
      <point x="45" y="433" type="line"/>
      <point x="245" y="433" type="line"/>
      <point x="245" y="700" type="line"/>
      <point x="249" y="700" type="line"/>
      <point x="249" y="433" type="line"/>
      <point x="449" y="433" type="line"/>
      <point x="449" y="429" type="line"/>
      <point x="249" y="429" type="line"/>
      <point x="249" y="170" type="line"/>
      <point x="449" y="170" type="line"/>
    </contour>
  </outline>
</glyph>
<glyph name="ellipsis" format="1">
  <advance width="522"/>
  <unicode hex="2026"/>
  <outline>
    <contour>
      <point x="437" y="0" type="line"/>
      <point x="433" y="0" type="line"/>
      <point x="433" y="60" type="line"/>
      <point x="437" y="60" type="line"/>
    </contour>
    <contour>
      <point x="263" y="0" type="line"/>
      <point x="259" y="0" type="line"/>
      <point x="259" y="60" type="line"/>
      <point x="263" y="60" type="line"/>
    </contour>
    <contour>
      <point x="89" y="0" type="line"/>
      <point x="85" y="0" type="line"/>
      <point x="85" y="60" type="line"/>
      <point x="89" y="60" type="line"/>
    </contour>
  </outline>
</glyph>
<glyph name="guilsinglleft" format="1">
  <advance width="317"/>
  <unicode hex="2039"/>
  <outline>
    <contour>
      <point x="252" y="0" type="line"/>
      <point x="247" y="0" type="line"/>
      <point x="45" y="261" type="line"/>
      <point x="45" y="263" type="line"/>
      <point x="247" y="525" type="line"/>
      <point x="252" y="525" type="line"/>
      <point x="49" y="262" type="line"/>
    </contour>
  </outline>
</glyph>
<glyph name="guilsinglright" format="1">
  <advance width="317"/>
  <unicode hex="203A"/>
  <outline>
    <contour>
      <point x="272" y="261" type="line"/>
      <point x="70" y="0" type="line"/>
      <point x="65" y="0" type="line"/>
      <point x="268" y="262" type="line"/>
      <point x="65" y="525" type="line"/>
      <point x="70" y="525" type="line"/>
      <point x="272" y="263" type="line"/>
    </contour>
  </outline>
</glyph>
<glyph name="fraction" format="1">
  <advance width="450"/>
  <unicode hex="2044"/>
  <outline>
    <contour>
      <point x="485" y="700" type="line"/>
      <point x="-30" y="0" type="line"/>
      <point x="-35" y="0" type="line"/>
      <point x="480" y="700" type="line"/>
    </contour>
  </outline>
</glyph>
<glyph name="Euro" format="1">
  <advance width="578"/>
  <unicode hex="20AC"/>
  <outline>
    <contour>
      <point x="84" y="291" type="line"/>
      <point x="101" y="105"/>
      <point x="196" y="-7"/>
      <point x="344" y="-7" type="curve" smooth="yes"/>
      <point x="409" y="-7"/>
      <point x="465" y="17"/>
      <point x="508" y="61" type="curve"/>
      <point x="511" y="59" type="line"/>
      <point x="470" y="15"/>
      <point x="411" y="-11"/>
      <point x="344" y="-11" type="curve" smooth="yes"/>
      <point x="179" y="-11"/>
      <point x="78" y="126"/>
      <point x="78" y="350" type="curve" smooth="yes"/>
      <point x="78" y="574"/>
      <point x="195" y="711"/>
      <point x="344" y="711" type="curve" smooth="yes"/>
      <point x="415" y="711"/>
      <point x="466" y="689"/>
      <point x="499" y="652" type="curve"/>
      <point x="496" y="650" type="line"/>
      <point x="461" y="687"/>
      <point x="413" y="707"/>
      <point x="344" y="707" type="curve" smooth="yes"/>
      <point x="211" y="707"/>
      <point x="105" y="597"/>
      <point x="85" y="412" type="curve"/>
      <point x="366" y="412" type="line"/>
      <point x="366" y="408" type="line"/>
      <point x="85" y="408" type="line"/>
      <point x="83" y="389"/>
      <point x="82" y="371"/>
      <point x="82" y="350" type="curve" smooth="yes"/>
      <point x="82" y="331"/>
      <point x="83" y="313"/>
      <point x="84" y="295" type="curve"/>
      <point x="366" y="295" type="line"/>
      <point x="366" y="291" type="line"/>
    </contour>
  </outline>
</glyph>
<glyph name="uni2117" format="1">
  <advance width="836"/>
  <unicode hex="2117"/>
  <outline>
    <contour>
      <point x="779" y="350" type="curve" smooth="yes"/>
      <point x="779" y="141"/>
      <point x="627" y="-11"/>
      <point x="418" y="-11" type="curve" smooth="yes"/>
      <point x="209" y="-11"/>
      <point x="57" y="141"/>
      <point x="57" y="350" type="curve" smooth="yes"/>
      <point x="57" y="559"/>
      <point x="209" y="711"/>
      <point x="418" y="711" type="curve" smooth="yes"/>
      <point x="627" y="711"/>
      <point x="779" y="559"/>
    </contour>
    <contour>
      <point x="775" y="350" type="curve" smooth="yes"/>
      <point x="775" y="557"/>
      <point x="625" y="707"/>
      <point x="418" y="707" type="curve" smooth="yes"/>
      <point x="211" y="707"/>
      <point x="61" y="557"/>
      <point x="61" y="350" type="curve" smooth="yes"/>
      <point x="61" y="143"/>
      <point x="211" y="-7"/>
      <point x="418" y="-7" type="curve" smooth="yes"/>
      <point x="625" y="-7"/>
      <point x="775" y="143"/>
    </contour>
    <contour>
      <point x="566" y="437" type="curve" smooth="yes"/>
      <point x="566" y="357"/>
      <point x="516" y="318"/>
      <point x="422" y="318" type="curve" smooth="yes"/>
      <point x="324" y="318" type="line"/>
      <point x="324" y="131" type="line"/>
      <point x="320" y="131" type="line"/>
      <point x="320" y="551" type="line"/>
      <point x="431" y="551" type="line" smooth="yes"/>
      <point x="514" y="551"/>
      <point x="566" y="522"/>
    </contour>
    <contour>
      <point x="562" y="437" type="curve" smooth="yes"/>
      <point x="562" y="519"/>
      <point x="513" y="547"/>
      <point x="431" y="547" type="curve" smooth="yes"/>
      <point x="324" y="547" type="line"/>
      <point x="324" y="322" type="line"/>
      <point x="422" y="322" type="line" smooth="yes"/>
      <point x="514" y="322"/>
      <point x="562" y="358"/>
    </contour>
  </outline>
</glyph>
<glyph name="trademark" format="1">
  <advance width="820"/>
  <unicode hex="2122"/>
  <outline>
    <contour>
      <point x="312" y="696" type="line"/>
      <point x="174" y="696" type="line"/>
      <point x="174" y="280" type="line"/>
      <point x="170" y="280" type="line"/>
      <point x="170" y="696" type="line"/>
      <point x="32" y="696" type="line"/>
      <point x="32" y="700" type="line"/>
      <point x="312" y="700" type="line"/>
    </contour>
    <contour>
      <point x="755" y="280" type="line"/>
      <point x="751" y="280" type="line"/>
      <point x="751" y="689" type="line"/>
      <point x="580" y="278" type="line"/>
      <point x="576" y="278" type="line"/>
      <point x="403" y="689" type="line"/>
      <point x="403" y="280" type="line"/>
      <point x="399" y="280" type="line"/>
      <point x="399" y="700" type="line"/>
      <point x="403" y="700" type="line"/>
      <point x="578" y="283" type="line"/>
      <point x="751" y="700" type="line"/>
      <point x="755" y="700" type="line"/>
    </contour>
  </outline>
</glyph>
<glyph name="arrowleft" format="1">
  <advance width="590"/>
  <unicode hex="2190"/>
  <outline>
    <contour>
      <point x="522" y="348" type="line"/>
      <point x="61" y="348" type="line"/>
      <point x="182" y="250" type="line"/>
      <point x="180" y="246" type="line"/>
      <point x="52" y="350" type="line"/>
      <point x="180" y="454" type="line"/>
      <point x="182" y="450" type="line"/>
      <point x="61" y="352" type="line"/>
      <point x="522" y="352" type="line"/>
    </contour>
  </outline>
</glyph>
<glyph name="arrowup" format="1">
  <advance width="366"/>
  <unicode hex="2191"/>
  <outline>
    <contour>
      <point x="287" y="587" type="line"/>
      <point x="283" y="585" type="line"/>
      <point x="185" y="706" type="line"/>
      <point x="185" y="0" type="line"/>
      <point x="181" y="0" type="line"/>
      <point x="181" y="706" type="line"/>
      <point x="83" y="585" type="line"/>
      <point x="79" y="587" type="line"/>
      <point x="183" y="715" type="line"/>
    </contour>
  </outline>
</glyph>
<glyph name="arrowright" format="1">
  <advance width="590"/>
  <unicode hex="2192"/>
  <outline>
    <contour>
      <point x="538" y="350" type="line"/>
      <point x="410" y="246" type="line"/>
      <point x="408" y="250" type="line"/>
      <point x="529" y="348" type="line"/>
      <point x="68" y="348" type="line"/>
      <point x="68" y="352" type="line"/>
      <point x="529" y="352" type="line"/>
      <point x="408" y="450" type="line"/>
      <point x="410" y="454" type="line"/>
    </contour>
  </outline>
</glyph>
<glyph name="arrowboth" format="1">
  <advance width="710"/>
  <unicode hex="2194"/>
  <outline>
    <contour>
      <point x="679" y="350" type="line"/>
      <point x="551" y="246" type="line"/>
      <point x="549" y="250" type="line"/>
      <point x="670" y="348" type="line"/>
      <point x="40" y="348" type="line"/>
      <point x="161" y="250" type="line"/>
      <point x="159" y="246" type="line"/>
      <point x="31" y="350" type="line"/>
      <point x="159" y="454" type="line"/>
      <point x="161" y="450" type="line"/>
      <point x="40" y="352" type="line"/>
      <point x="670" y="352" type="line"/>
      <point x="549" y="450" type="line"/>
      <point x="551" y="454" type="line"/>
    </contour>
  </outline>
</glyph>
<glyph name="arrowupdn" format="1">
  <advance width="366"/>
  <unicode hex="2195"/>
  <outline>
    <contour>
      <point x="287" y="113" type="line"/>
      <point x="183" y="-15" type="line"/>
      <point x="79" y="113" type="line"/>
      <point x="83" y="115" type="line"/>
      <point x="181" y="-6" type="line"/>
      <point x="181" y="706" type="line"/>
      <point x="83" y="585" type="line"/>
      <point x="79" y="587" type="line"/>
      <point x="183" y="715" type="line"/>
      <point x="287" y="587" type="line"/>
      <point x="283" y="585" type="line"/>
      <point x="185" y="706" type="line"/>
      <point x="185" y="-6" type="line"/>
      <point x="283" y="115" type="line"/>
    </contour>
  </outline>
</glyph>
<glyph name="radical" format="1">
  <advance width="520"/>
  <unicode hex="221A"/>
  <outline>
    <contour>
      <point x="472" y="700" type="line"/>
      <point x="208" y="0" type="line"/>
      <point x="204" y="0" type="line"/>
      <point x="46" y="340" type="line"/>
      <point x="50" y="340" type="line"/>
      <point x="206" y="5" type="line"/>
      <point x="468" y="700" type="line"/>
    </contour>
  </outline>
</glyph>
<glyph name="apple" format="1">
  <advance width="710"/>
  <unicode hex="F8FF"/>
  <outline>
    <contour>
      <point x="679" y="350" type="line"/>
      <point x="551" y="246" type="line"/>
      <point x="549" y="250" type="line"/>
      <point x="670" y="348" type="line"/>
      <point x="357" y="348" type="line"/>
      <point x="357" y="-6" type="line"/>
      <point x="455" y="115" type="line"/>
      <point x="459" y="113" type="line"/>
      <point x="355" y="-15" type="line"/>
      <point x="251" y="113" type="line"/>
      <point x="255" y="115" type="line"/>
      <point x="353" y="-6" type="line"/>
      <point x="353" y="348" type="line"/>
      <point x="40" y="348" type="line"/>
      <point x="161" y="250" type="line"/>
      <point x="159" y="246" type="line"/>
      <point x="31" y="350" type="line"/>
      <point x="159" y="454" type="line"/>
      <point x="161" y="450" type="line"/>
      <point x="40" y="352" type="line"/>
      <point x="353" y="352" type="line"/>
      <point x="353" y="706" type="line"/>
      <point x="255" y="585" type="line"/>
      <point x="251" y="587" type="line"/>
      <point x="355" y="715" type="line"/>
      <point x="459" y="587" type="line"/>
      <point x="455" y="585" type="line"/>
      <point x="357" y="706" type="line"/>
      <point x="357" y="352" type="line"/>
      <point x="670" y="352" type="line"/>
      <point x="549" y="450" type="line"/>
      <point x="551" y="454" type="line"/>
    </contour>
  </outline>
</glyph>
<glyph name="bullet" format="1">
  <advance width="254"/>
  <outline>
    <contour>
      <point x="164" y="366" type="curve" smooth="yes"/>
      <point x="164" y="345"/>
      <point x="148" y="329"/>
      <point x="127" y="329" type="curve" smooth="yes"/>
      <point x="106" y="329"/>
      <point x="90" y="345"/>
      <point x="90" y="366" type="curve" smooth="yes"/>
      <point x="90" y="387"/>
      <point x="106" y="404"/>
      <point x="127" y="404" type="curve" smooth="yes"/>
      <point x="148" y="404"/>
      <point x="164" y="387"/>
    </contour>
  </outline>
</glyph>
<glyph name="macron" format="1">
  <advance width="500"/>
  <outline>
    <contour>
      <point x="386" y="640" type="line"/>
      <point x="114" y="640" type="line"/>
      <point x="114" y="644" type="line"/>
      <point x="386" y="644" type="line"/>
    </contour>
  </outline>
</glyph>
<glyph name="registered" format="1">
  <advance width="836"/>
  <outline>
    <contour>
      <point x="779" y="350" type="curve" smooth="yes"/>
      <point x="779" y="141"/>
      <point x="627" y="-11"/>
      <point x="418" y="-11" type="curve" smooth="yes"/>
      <point x="209" y="-11"/>
      <point x="57" y="141"/>
      <point x="57" y="350" type="curve" smooth="yes"/>
      <point x="57" y="559"/>
      <point x="209" y="711"/>
      <point x="418" y="711" type="curve" smooth="yes"/>
      <point x="627" y="711"/>
      <point x="779" y="559"/>
    </contour>
    <contour>
      <point x="775" y="350" type="curve" smooth="yes"/>
      <point x="775" y="557"/>
      <point x="625" y="707"/>
      <point x="418" y="707" type="curve" smooth="yes"/>
      <point x="211" y="707"/>
      <point x="61" y="557"/>
      <point x="61" y="350" type="curve" smooth="yes"/>
      <point x="61" y="143"/>
      <point x="211" y="-7"/>
      <point x="418" y="-7" type="curve" smooth="yes"/>
      <point x="625" y="-7"/>
      <point x="775" y="143"/>
    </contour>
    <contour>
      <point x="554" y="457" type="curve" smooth="yes"/>
      <point x="554" y="388"/>
      <point x="516" y="353"/>
      <point x="448" y="344" type="curve"/>
      <point x="549" y="145" type="line"/>
      <point x="545" y="145" type="line"/>
      <point x="444" y="343" type="line"/>
      <point x="433" y="342"/>
      <point x="419" y="341"/>
      <point x="406" y="341" type="curve" smooth="yes"/>
      <point x="312" y="341" type="line"/>
      <point x="312" y="145" type="line"/>
      <point x="308" y="145" type="line"/>
      <point x="308" y="565" type="line"/>
      <point x="414" y="565" type="line" smooth="yes"/>
      <point x="498" y="565"/>
      <point x="554" y="541"/>
    </contour>
    <contour>
      <point x="550" y="457" type="curve" smooth="yes"/>
      <point x="550" y="539"/>
      <point x="496" y="561"/>
      <point x="414" y="561" type="curve" smooth="yes"/>
      <point x="312" y="561" type="line"/>
      <point x="312" y="345" type="line"/>
      <point x="406" y="345" type="line" smooth="yes"/>
      <point x="498" y="345"/>
      <point x="550" y="377"/>
    </contour>
  </outline>
</glyph>
